%TF.GenerationSoftware,KiCad,Pcbnew,(5.1.6)-1*%
%TF.CreationDate,2020-10-06T11:55:27-05:00*%
%TF.ProjectId,desk_lamp,6465736b-5f6c-4616-9d70-2e6b69636164,rev?*%
%TF.SameCoordinates,Original*%
%TF.FileFunction,Legend,Top*%
%TF.FilePolarity,Positive*%
%FSLAX46Y46*%
G04 Gerber Fmt 4.6, Leading zero omitted, Abs format (unit mm)*
G04 Created by KiCad (PCBNEW (5.1.6)-1) date 2020-10-06 11:55:27*
%MOMM*%
%LPD*%
G01*
G04 APERTURE LIST*
%ADD10C,0.120000*%
%ADD11C,0.150000*%
G04 APERTURE END LIST*
D10*
%TO.C,J2*%
X64794000Y-38086000D02*
X64794000Y-39826000D01*
X63054000Y-38086000D02*
X64794000Y-38086000D01*
X64554000Y-47526000D02*
X62554000Y-47526000D01*
X64554000Y-44726000D02*
X64554000Y-47526000D01*
X64554000Y-38326000D02*
X64554000Y-41126000D01*
X49954000Y-38326000D02*
X64554000Y-38326000D01*
X49954000Y-47526000D02*
X49954000Y-38326000D01*
X58954000Y-47526000D02*
X49954000Y-47526000D01*
%TO.C,J1*%
X64794000Y-25386000D02*
X64794000Y-27126000D01*
X63054000Y-25386000D02*
X64794000Y-25386000D01*
X64554000Y-34826000D02*
X62554000Y-34826000D01*
X64554000Y-32026000D02*
X64554000Y-34826000D01*
X64554000Y-25626000D02*
X64554000Y-28426000D01*
X49954000Y-25626000D02*
X64554000Y-25626000D01*
X49954000Y-34826000D02*
X49954000Y-25626000D01*
X58954000Y-34826000D02*
X49954000Y-34826000D01*
%TO.C,J3*%
X91266200Y-54671000D02*
X91266200Y-54071000D01*
X91866200Y-54371000D02*
X91266200Y-54671000D01*
X91266200Y-54071000D02*
X91866200Y-54371000D01*
X92068000Y-56276000D02*
X92042600Y-44007800D01*
X92042600Y-44007800D02*
X103828200Y-44007800D01*
X103828200Y-44007800D02*
X103828200Y-56276000D01*
X103828200Y-56276000D02*
X92068000Y-56276000D01*
%TO.C,Q1*%
X72715000Y-37844000D02*
X72715000Y-36384000D01*
X75875000Y-37844000D02*
X75875000Y-35684000D01*
X75875000Y-37844000D02*
X74945000Y-37844000D01*
X72715000Y-37844000D02*
X73645000Y-37844000D01*
%TO.C,U1*%
X70095000Y-29176000D02*
X70095000Y-27866000D01*
X70095000Y-27866000D02*
X72815000Y-27866000D01*
X73955000Y-32356000D02*
X72815000Y-32356000D01*
X70095000Y-32586000D02*
X70095000Y-31276000D01*
X72815000Y-32586000D02*
X70095000Y-32586000D01*
X72815000Y-32586000D02*
X72815000Y-32356000D01*
X72815000Y-27866000D02*
X72815000Y-28096000D01*
%TO.C,R4*%
X81482000Y-37391078D02*
X81482000Y-36873922D01*
X80062000Y-37391078D02*
X80062000Y-36873922D01*
%TO.C,R3*%
X83768000Y-37391078D02*
X83768000Y-36873922D01*
X82348000Y-37391078D02*
X82348000Y-36873922D01*
%TO.C,R2*%
X69521000Y-36873922D02*
X69521000Y-37391078D01*
X70941000Y-36873922D02*
X70941000Y-37391078D01*
%TO.C,R1*%
X77776000Y-36825422D02*
X77776000Y-37342578D01*
X79196000Y-36825422D02*
X79196000Y-37342578D01*
%TO.C,Q2*%
X76955000Y-46429000D02*
X76955000Y-44929000D01*
X76955000Y-44929000D02*
X75145000Y-44929000D01*
X75145000Y-44929000D02*
X75145000Y-39804000D01*
X66555000Y-46429000D02*
X66555000Y-44929000D01*
X66555000Y-44929000D02*
X68365000Y-44929000D01*
X68365000Y-44929000D02*
X68365000Y-43829000D01*
%TO.C,C2*%
X83999000Y-24173922D02*
X83999000Y-24691078D01*
X85419000Y-24173922D02*
X85419000Y-24691078D01*
%TO.C,C1*%
X66727000Y-31031922D02*
X66727000Y-31549078D01*
X68147000Y-31031922D02*
X68147000Y-31549078D01*
%TO.C,U2*%
D11*
X87249095Y-43775380D02*
X87249095Y-44584904D01*
X87296714Y-44680142D01*
X87344333Y-44727761D01*
X87439571Y-44775380D01*
X87630047Y-44775380D01*
X87725285Y-44727761D01*
X87772904Y-44680142D01*
X87820523Y-44584904D01*
X87820523Y-43775380D01*
X88249095Y-43870619D02*
X88296714Y-43823000D01*
X88391952Y-43775380D01*
X88630047Y-43775380D01*
X88725285Y-43823000D01*
X88772904Y-43870619D01*
X88820523Y-43965857D01*
X88820523Y-44061095D01*
X88772904Y-44203952D01*
X88201476Y-44775380D01*
X88820523Y-44775380D01*
%TO.C,J2*%
X54970666Y-48128380D02*
X54970666Y-48842666D01*
X54923047Y-48985523D01*
X54827809Y-49080761D01*
X54684952Y-49128380D01*
X54589714Y-49128380D01*
X55399238Y-48223619D02*
X55446857Y-48176000D01*
X55542095Y-48128380D01*
X55780190Y-48128380D01*
X55875428Y-48176000D01*
X55923047Y-48223619D01*
X55970666Y-48318857D01*
X55970666Y-48414095D01*
X55923047Y-48556952D01*
X55351619Y-49128380D01*
X55970666Y-49128380D01*
%TO.C,J1*%
X54970666Y-35428380D02*
X54970666Y-36142666D01*
X54923047Y-36285523D01*
X54827809Y-36380761D01*
X54684952Y-36428380D01*
X54589714Y-36428380D01*
X55970666Y-36428380D02*
X55399238Y-36428380D01*
X55684952Y-36428380D02*
X55684952Y-35428380D01*
X55589714Y-35571238D01*
X55494476Y-35666476D01*
X55399238Y-35714095D01*
%TO.C,J3*%
X90852666Y-55205380D02*
X90852666Y-55919666D01*
X90805047Y-56062523D01*
X90709809Y-56157761D01*
X90566952Y-56205380D01*
X90471714Y-56205380D01*
X91233619Y-55205380D02*
X91852666Y-55205380D01*
X91519333Y-55586333D01*
X91662190Y-55586333D01*
X91757428Y-55633952D01*
X91805047Y-55681571D01*
X91852666Y-55776809D01*
X91852666Y-56014904D01*
X91805047Y-56110142D01*
X91757428Y-56157761D01*
X91662190Y-56205380D01*
X91376476Y-56205380D01*
X91281238Y-56157761D01*
X91233619Y-56110142D01*
%TO.C,Q1*%
X74199761Y-35218619D02*
X74104523Y-35171000D01*
X74009285Y-35075761D01*
X73866428Y-34932904D01*
X73771190Y-34885285D01*
X73675952Y-34885285D01*
X73723571Y-35123380D02*
X73628333Y-35075761D01*
X73533095Y-34980523D01*
X73485476Y-34790047D01*
X73485476Y-34456714D01*
X73533095Y-34266238D01*
X73628333Y-34171000D01*
X73723571Y-34123380D01*
X73914047Y-34123380D01*
X74009285Y-34171000D01*
X74104523Y-34266238D01*
X74152142Y-34456714D01*
X74152142Y-34790047D01*
X74104523Y-34980523D01*
X74009285Y-35075761D01*
X73914047Y-35123380D01*
X73723571Y-35123380D01*
X75104523Y-35123380D02*
X74533095Y-35123380D01*
X74818809Y-35123380D02*
X74818809Y-34123380D01*
X74723571Y-34266238D01*
X74628333Y-34361476D01*
X74533095Y-34409095D01*
%TO.C,TP6*%
X69466009Y-21067780D02*
X70085057Y-21067780D01*
X69751723Y-21448733D01*
X69894580Y-21448733D01*
X69989819Y-21496352D01*
X70037438Y-21543971D01*
X70085057Y-21639209D01*
X70085057Y-21877304D01*
X70037438Y-21972542D01*
X69989819Y-22020161D01*
X69894580Y-22067780D01*
X69608866Y-22067780D01*
X69513628Y-22020161D01*
X69466009Y-21972542D01*
X70513628Y-21972542D02*
X70561247Y-22020161D01*
X70513628Y-22067780D01*
X70466009Y-22020161D01*
X70513628Y-21972542D01*
X70513628Y-22067780D01*
X70894580Y-21067780D02*
X71513628Y-21067780D01*
X71180295Y-21448733D01*
X71323152Y-21448733D01*
X71418390Y-21496352D01*
X71466009Y-21543971D01*
X71513628Y-21639209D01*
X71513628Y-21877304D01*
X71466009Y-21972542D01*
X71418390Y-22020161D01*
X71323152Y-22067780D01*
X71037438Y-22067780D01*
X70942200Y-22020161D01*
X70894580Y-21972542D01*
X71799342Y-21067780D02*
X72132676Y-22067780D01*
X72466009Y-21067780D01*
%TO.C,TP5*%
X80888009Y-52452542D02*
X80840390Y-52500161D01*
X80697533Y-52547780D01*
X80602295Y-52547780D01*
X80459438Y-52500161D01*
X80364200Y-52404923D01*
X80316580Y-52309685D01*
X80268961Y-52119209D01*
X80268961Y-51976352D01*
X80316580Y-51785876D01*
X80364200Y-51690638D01*
X80459438Y-51595400D01*
X80602295Y-51547780D01*
X80697533Y-51547780D01*
X80840390Y-51595400D01*
X80888009Y-51643019D01*
X81173723Y-51547780D02*
X81745152Y-51547780D01*
X81459438Y-52547780D02*
X81459438Y-51547780D01*
X82649914Y-52547780D02*
X82316580Y-52071590D01*
X82078485Y-52547780D02*
X82078485Y-51547780D01*
X82459438Y-51547780D01*
X82554676Y-51595400D01*
X82602295Y-51643019D01*
X82649914Y-51738257D01*
X82649914Y-51881114D01*
X82602295Y-51976352D01*
X82554676Y-52023971D01*
X82459438Y-52071590D01*
X82078485Y-52071590D01*
X83554676Y-52547780D02*
X83078485Y-52547780D01*
X83078485Y-51547780D01*
%TO.C,TP4*%
X86982466Y-47648761D02*
X87125323Y-47696380D01*
X87363419Y-47696380D01*
X87458657Y-47648761D01*
X87506276Y-47601142D01*
X87553895Y-47505904D01*
X87553895Y-47410666D01*
X87506276Y-47315428D01*
X87458657Y-47267809D01*
X87363419Y-47220190D01*
X87172942Y-47172571D01*
X87077704Y-47124952D01*
X87030085Y-47077333D01*
X86982466Y-46982095D01*
X86982466Y-46886857D01*
X87030085Y-46791619D01*
X87077704Y-46744000D01*
X87172942Y-46696380D01*
X87411038Y-46696380D01*
X87553895Y-46744000D01*
X87887228Y-46696380D02*
X88125323Y-47696380D01*
X88315800Y-46982095D01*
X88506276Y-47696380D01*
X88744371Y-46696380D01*
X89649133Y-47696380D02*
X89077704Y-47696380D01*
X89363419Y-47696380D02*
X89363419Y-46696380D01*
X89268180Y-46839238D01*
X89172942Y-46934476D01*
X89077704Y-46982095D01*
%TO.C,TP3*%
X87007866Y-52500161D02*
X87150723Y-52547780D01*
X87388819Y-52547780D01*
X87484057Y-52500161D01*
X87531676Y-52452542D01*
X87579295Y-52357304D01*
X87579295Y-52262066D01*
X87531676Y-52166828D01*
X87484057Y-52119209D01*
X87388819Y-52071590D01*
X87198342Y-52023971D01*
X87103104Y-51976352D01*
X87055485Y-51928733D01*
X87007866Y-51833495D01*
X87007866Y-51738257D01*
X87055485Y-51643019D01*
X87103104Y-51595400D01*
X87198342Y-51547780D01*
X87436438Y-51547780D01*
X87579295Y-51595400D01*
X87912628Y-51547780D02*
X88150723Y-52547780D01*
X88341200Y-51833495D01*
X88531676Y-52547780D01*
X88769771Y-51547780D01*
X89341200Y-51547780D02*
X89436438Y-51547780D01*
X89531676Y-51595400D01*
X89579295Y-51643019D01*
X89626914Y-51738257D01*
X89674533Y-51928733D01*
X89674533Y-52166828D01*
X89626914Y-52357304D01*
X89579295Y-52452542D01*
X89531676Y-52500161D01*
X89436438Y-52547780D01*
X89341200Y-52547780D01*
X89245961Y-52500161D01*
X89198342Y-52452542D01*
X89150723Y-52357304D01*
X89103104Y-52166828D01*
X89103104Y-51928733D01*
X89150723Y-51738257D01*
X89198342Y-51643019D01*
X89245961Y-51595400D01*
X89341200Y-51547780D01*
%TO.C,TP2*%
X58470895Y-21090000D02*
X58375657Y-21042380D01*
X58232800Y-21042380D01*
X58089942Y-21090000D01*
X57994704Y-21185238D01*
X57947085Y-21280476D01*
X57899466Y-21470952D01*
X57899466Y-21613809D01*
X57947085Y-21804285D01*
X57994704Y-21899523D01*
X58089942Y-21994761D01*
X58232800Y-22042380D01*
X58328038Y-22042380D01*
X58470895Y-21994761D01*
X58518514Y-21947142D01*
X58518514Y-21613809D01*
X58328038Y-21613809D01*
X58947085Y-22042380D02*
X58947085Y-21042380D01*
X59518514Y-22042380D01*
X59518514Y-21042380D01*
X59994704Y-22042380D02*
X59994704Y-21042380D01*
X60232800Y-21042380D01*
X60375657Y-21090000D01*
X60470895Y-21185238D01*
X60518514Y-21280476D01*
X60566133Y-21470952D01*
X60566133Y-21613809D01*
X60518514Y-21804285D01*
X60470895Y-21899523D01*
X60375657Y-21994761D01*
X60232800Y-22042380D01*
X59994704Y-22042380D01*
%TO.C,TP1*%
X64709752Y-22042380D02*
X64138323Y-22042380D01*
X64424038Y-22042380D02*
X64424038Y-21042380D01*
X64328800Y-21185238D01*
X64233561Y-21280476D01*
X64138323Y-21328095D01*
X65090704Y-21137619D02*
X65138323Y-21090000D01*
X65233561Y-21042380D01*
X65471657Y-21042380D01*
X65566895Y-21090000D01*
X65614514Y-21137619D01*
X65662133Y-21232857D01*
X65662133Y-21328095D01*
X65614514Y-21470952D01*
X65043085Y-22042380D01*
X65662133Y-22042380D01*
X65947847Y-21042380D02*
X66281180Y-22042380D01*
X66614514Y-21042380D01*
%TO.C,U1*%
X70993095Y-26503380D02*
X70993095Y-27312904D01*
X71040714Y-27408142D01*
X71088333Y-27455761D01*
X71183571Y-27503380D01*
X71374047Y-27503380D01*
X71469285Y-27455761D01*
X71516904Y-27408142D01*
X71564523Y-27312904D01*
X71564523Y-26503380D01*
X72564523Y-27503380D02*
X71993095Y-27503380D01*
X72278809Y-27503380D02*
X72278809Y-26503380D01*
X72183571Y-26646238D01*
X72088333Y-26741476D01*
X71993095Y-26789095D01*
%TO.C,R4*%
X80605333Y-35298880D02*
X80272000Y-34822690D01*
X80033904Y-35298880D02*
X80033904Y-34298880D01*
X80414857Y-34298880D01*
X80510095Y-34346500D01*
X80557714Y-34394119D01*
X80605333Y-34489357D01*
X80605333Y-34632214D01*
X80557714Y-34727452D01*
X80510095Y-34775071D01*
X80414857Y-34822690D01*
X80033904Y-34822690D01*
X81462476Y-34632214D02*
X81462476Y-35298880D01*
X81224380Y-34251261D02*
X80986285Y-34965547D01*
X81605333Y-34965547D01*
%TO.C,R3*%
X82891333Y-35250380D02*
X82558000Y-34774190D01*
X82319904Y-35250380D02*
X82319904Y-34250380D01*
X82700857Y-34250380D01*
X82796095Y-34298000D01*
X82843714Y-34345619D01*
X82891333Y-34440857D01*
X82891333Y-34583714D01*
X82843714Y-34678952D01*
X82796095Y-34726571D01*
X82700857Y-34774190D01*
X82319904Y-34774190D01*
X83224666Y-34250380D02*
X83843714Y-34250380D01*
X83510380Y-34631333D01*
X83653238Y-34631333D01*
X83748476Y-34678952D01*
X83796095Y-34726571D01*
X83843714Y-34821809D01*
X83843714Y-35059904D01*
X83796095Y-35155142D01*
X83748476Y-35202761D01*
X83653238Y-35250380D01*
X83367523Y-35250380D01*
X83272285Y-35202761D01*
X83224666Y-35155142D01*
%TO.C,R2*%
X70064333Y-35250380D02*
X69731000Y-34774190D01*
X69492904Y-35250380D02*
X69492904Y-34250380D01*
X69873857Y-34250380D01*
X69969095Y-34298000D01*
X70016714Y-34345619D01*
X70064333Y-34440857D01*
X70064333Y-34583714D01*
X70016714Y-34678952D01*
X69969095Y-34726571D01*
X69873857Y-34774190D01*
X69492904Y-34774190D01*
X70445285Y-34345619D02*
X70492904Y-34298000D01*
X70588142Y-34250380D01*
X70826238Y-34250380D01*
X70921476Y-34298000D01*
X70969095Y-34345619D01*
X71016714Y-34440857D01*
X71016714Y-34536095D01*
X70969095Y-34678952D01*
X70397666Y-35250380D01*
X71016714Y-35250380D01*
%TO.C,R1*%
X78319333Y-35250380D02*
X77986000Y-34774190D01*
X77747904Y-35250380D02*
X77747904Y-34250380D01*
X78128857Y-34250380D01*
X78224095Y-34298000D01*
X78271714Y-34345619D01*
X78319333Y-34440857D01*
X78319333Y-34583714D01*
X78271714Y-34678952D01*
X78224095Y-34726571D01*
X78128857Y-34774190D01*
X77747904Y-34774190D01*
X79271714Y-35250380D02*
X78700285Y-35250380D01*
X78986000Y-35250380D02*
X78986000Y-34250380D01*
X78890761Y-34393238D01*
X78795523Y-34488476D01*
X78700285Y-34536095D01*
%TO.C,Q2*%
X66833761Y-39409619D02*
X66738523Y-39362000D01*
X66643285Y-39266761D01*
X66500428Y-39123904D01*
X66405190Y-39076285D01*
X66309952Y-39076285D01*
X66357571Y-39314380D02*
X66262333Y-39266761D01*
X66167095Y-39171523D01*
X66119476Y-38981047D01*
X66119476Y-38647714D01*
X66167095Y-38457238D01*
X66262333Y-38362000D01*
X66357571Y-38314380D01*
X66548047Y-38314380D01*
X66643285Y-38362000D01*
X66738523Y-38457238D01*
X66786142Y-38647714D01*
X66786142Y-38981047D01*
X66738523Y-39171523D01*
X66643285Y-39266761D01*
X66548047Y-39314380D01*
X66357571Y-39314380D01*
X67167095Y-38409619D02*
X67214714Y-38362000D01*
X67309952Y-38314380D01*
X67548047Y-38314380D01*
X67643285Y-38362000D01*
X67690904Y-38409619D01*
X67738523Y-38504857D01*
X67738523Y-38600095D01*
X67690904Y-38742952D01*
X67119476Y-39314380D01*
X67738523Y-39314380D01*
%TO.C,C2*%
X84542333Y-22455142D02*
X84494714Y-22502761D01*
X84351857Y-22550380D01*
X84256619Y-22550380D01*
X84113761Y-22502761D01*
X84018523Y-22407523D01*
X83970904Y-22312285D01*
X83923285Y-22121809D01*
X83923285Y-21978952D01*
X83970904Y-21788476D01*
X84018523Y-21693238D01*
X84113761Y-21598000D01*
X84256619Y-21550380D01*
X84351857Y-21550380D01*
X84494714Y-21598000D01*
X84542333Y-21645619D01*
X84923285Y-21645619D02*
X84970904Y-21598000D01*
X85066142Y-21550380D01*
X85304238Y-21550380D01*
X85399476Y-21598000D01*
X85447095Y-21645619D01*
X85494714Y-21740857D01*
X85494714Y-21836095D01*
X85447095Y-21978952D01*
X84875666Y-22550380D01*
X85494714Y-22550380D01*
%TO.C,C1*%
X67270333Y-29313142D02*
X67222714Y-29360761D01*
X67079857Y-29408380D01*
X66984619Y-29408380D01*
X66841761Y-29360761D01*
X66746523Y-29265523D01*
X66698904Y-29170285D01*
X66651285Y-28979809D01*
X66651285Y-28836952D01*
X66698904Y-28646476D01*
X66746523Y-28551238D01*
X66841761Y-28456000D01*
X66984619Y-28408380D01*
X67079857Y-28408380D01*
X67222714Y-28456000D01*
X67270333Y-28503619D01*
X68222714Y-29408380D02*
X67651285Y-29408380D01*
X67937000Y-29408380D02*
X67937000Y-28408380D01*
X67841761Y-28551238D01*
X67746523Y-28646476D01*
X67651285Y-28694095D01*
%TD*%
M02*
