%TF.GenerationSoftware,KiCad,Pcbnew,(5.1.6)-1*%
%TF.CreationDate,2020-09-18T11:49:07-05:00*%
%TF.ProjectId,desk_lamp,6465736b-5f6c-4616-9d70-2e6b69636164,rev?*%
%TF.SameCoordinates,Original*%
%TF.FileFunction,Legend,Bot*%
%TF.FilePolarity,Positive*%
%FSLAX46Y46*%
G04 Gerber Fmt 4.6, Leading zero omitted, Abs format (unit mm)*
G04 Created by KiCad (PCBNEW (5.1.6)-1) date 2020-09-18 11:49:07*
%MOMM*%
%LPD*%
G01*
G04 APERTURE LIST*
%ADD10C,0.120000*%
%ADD11C,0.150000*%
G04 APERTURE END LIST*
D10*
%TO.C,R9*%
X93017078Y-32945000D02*
X92499922Y-32945000D01*
X93017078Y-34365000D02*
X92499922Y-34365000D01*
%TO.C,R8*%
X93017078Y-34850000D02*
X92499922Y-34850000D01*
X93017078Y-36270000D02*
X92499922Y-36270000D01*
%TO.C,R7*%
X97325922Y-34365000D02*
X97843078Y-34365000D01*
X97325922Y-32945000D02*
X97843078Y-32945000D01*
%TO.C,R6*%
X97325922Y-36270000D02*
X97843078Y-36270000D01*
X97325922Y-34850000D02*
X97843078Y-34850000D01*
%TO.C,R5*%
X93017078Y-31040000D02*
X92499922Y-31040000D01*
X93017078Y-32460000D02*
X92499922Y-32460000D01*
%TO.C,R4*%
X88191078Y-40692000D02*
X87673922Y-40692000D01*
X88191078Y-42112000D02*
X87673922Y-42112000D01*
%TO.C,R3*%
X88191078Y-38787000D02*
X87673922Y-38787000D01*
X88191078Y-40207000D02*
X87673922Y-40207000D01*
%TO.C,R2*%
X73225922Y-36778000D02*
X73743078Y-36778000D01*
X73225922Y-35358000D02*
X73743078Y-35358000D01*
%TO.C,R1*%
X81450922Y-37032000D02*
X81968078Y-37032000D01*
X81450922Y-35612000D02*
X81968078Y-35612000D01*
%TO.C,Q2*%
X75253000Y-42836000D02*
X75253000Y-41736000D01*
X77063000Y-42836000D02*
X75253000Y-42836000D01*
X77063000Y-44336000D02*
X77063000Y-42836000D01*
X68473000Y-42836000D02*
X68473000Y-37711000D01*
X66663000Y-42836000D02*
X68473000Y-42836000D01*
X66663000Y-44336000D02*
X66663000Y-42836000D01*
%TO.C,C3*%
X83133000Y-30865578D02*
X83133000Y-30348422D01*
X81713000Y-30865578D02*
X81713000Y-30348422D01*
%TO.C,C2*%
X77164000Y-28023078D02*
X77164000Y-27505922D01*
X75744000Y-28023078D02*
X75744000Y-27505922D01*
%TO.C,C1*%
X67639000Y-29547078D02*
X67639000Y-29029922D01*
X66219000Y-29547078D02*
X66219000Y-29029922D01*
%TO.C,R9*%
D11*
X95496880Y-33488333D02*
X95020690Y-33155000D01*
X95496880Y-32916904D02*
X94496880Y-32916904D01*
X94496880Y-33297857D01*
X94544500Y-33393095D01*
X94592119Y-33440714D01*
X94687357Y-33488333D01*
X94830214Y-33488333D01*
X94925452Y-33440714D01*
X94973071Y-33393095D01*
X95020690Y-33297857D01*
X95020690Y-32916904D01*
X95496880Y-33964523D02*
X95496880Y-34155000D01*
X95449261Y-34250238D01*
X95401642Y-34297857D01*
X95258785Y-34393095D01*
X95068309Y-34440714D01*
X94687357Y-34440714D01*
X94592119Y-34393095D01*
X94544500Y-34345476D01*
X94496880Y-34250238D01*
X94496880Y-34059761D01*
X94544500Y-33964523D01*
X94592119Y-33916904D01*
X94687357Y-33869285D01*
X94925452Y-33869285D01*
X95020690Y-33916904D01*
X95068309Y-33964523D01*
X95115928Y-34059761D01*
X95115928Y-34250238D01*
X95068309Y-34345476D01*
X95020690Y-34393095D01*
X94925452Y-34440714D01*
%TO.C,R8*%
X95575380Y-35393333D02*
X95099190Y-35060000D01*
X95575380Y-34821904D02*
X94575380Y-34821904D01*
X94575380Y-35202857D01*
X94623000Y-35298095D01*
X94670619Y-35345714D01*
X94765857Y-35393333D01*
X94908714Y-35393333D01*
X95003952Y-35345714D01*
X95051571Y-35298095D01*
X95099190Y-35202857D01*
X95099190Y-34821904D01*
X95003952Y-35964761D02*
X94956333Y-35869523D01*
X94908714Y-35821904D01*
X94813476Y-35774285D01*
X94765857Y-35774285D01*
X94670619Y-35821904D01*
X94623000Y-35869523D01*
X94575380Y-35964761D01*
X94575380Y-36155238D01*
X94623000Y-36250476D01*
X94670619Y-36298095D01*
X94765857Y-36345714D01*
X94813476Y-36345714D01*
X94908714Y-36298095D01*
X94956333Y-36250476D01*
X95003952Y-36155238D01*
X95003952Y-35964761D01*
X95051571Y-35869523D01*
X95099190Y-35821904D01*
X95194428Y-35774285D01*
X95384904Y-35774285D01*
X95480142Y-35821904D01*
X95527761Y-35869523D01*
X95575380Y-35964761D01*
X95575380Y-36155238D01*
X95527761Y-36250476D01*
X95480142Y-36298095D01*
X95384904Y-36345714D01*
X95194428Y-36345714D01*
X95099190Y-36298095D01*
X95051571Y-36250476D01*
X95003952Y-36155238D01*
%TO.C,R7*%
X95672380Y-33488333D02*
X95196190Y-33155000D01*
X95672380Y-32916904D02*
X94672380Y-32916904D01*
X94672380Y-33297857D01*
X94720000Y-33393095D01*
X94767619Y-33440714D01*
X94862857Y-33488333D01*
X95005714Y-33488333D01*
X95100952Y-33440714D01*
X95148571Y-33393095D01*
X95196190Y-33297857D01*
X95196190Y-32916904D01*
X94672380Y-33821666D02*
X94672380Y-34488333D01*
X95672380Y-34059761D01*
%TO.C,R6*%
X95672380Y-35393333D02*
X95196190Y-35060000D01*
X95672380Y-34821904D02*
X94672380Y-34821904D01*
X94672380Y-35202857D01*
X94720000Y-35298095D01*
X94767619Y-35345714D01*
X94862857Y-35393333D01*
X95005714Y-35393333D01*
X95100952Y-35345714D01*
X95148571Y-35298095D01*
X95196190Y-35202857D01*
X95196190Y-34821904D01*
X94672380Y-36250476D02*
X94672380Y-36060000D01*
X94720000Y-35964761D01*
X94767619Y-35917142D01*
X94910476Y-35821904D01*
X95100952Y-35774285D01*
X95481904Y-35774285D01*
X95577142Y-35821904D01*
X95624761Y-35869523D01*
X95672380Y-35964761D01*
X95672380Y-36155238D01*
X95624761Y-36250476D01*
X95577142Y-36298095D01*
X95481904Y-36345714D01*
X95243809Y-36345714D01*
X95148571Y-36298095D01*
X95100952Y-36250476D01*
X95053333Y-36155238D01*
X95053333Y-35964761D01*
X95100952Y-35869523D01*
X95148571Y-35821904D01*
X95243809Y-35774285D01*
%TO.C,R5*%
X95496880Y-31583333D02*
X95020690Y-31250000D01*
X95496880Y-31011904D02*
X94496880Y-31011904D01*
X94496880Y-31392857D01*
X94544500Y-31488095D01*
X94592119Y-31535714D01*
X94687357Y-31583333D01*
X94830214Y-31583333D01*
X94925452Y-31535714D01*
X94973071Y-31488095D01*
X95020690Y-31392857D01*
X95020690Y-31011904D01*
X94496880Y-32488095D02*
X94496880Y-32011904D01*
X94973071Y-31964285D01*
X94925452Y-32011904D01*
X94877833Y-32107142D01*
X94877833Y-32345238D01*
X94925452Y-32440476D01*
X94973071Y-32488095D01*
X95068309Y-32535714D01*
X95306404Y-32535714D01*
X95401642Y-32488095D01*
X95449261Y-32440476D01*
X95496880Y-32345238D01*
X95496880Y-32107142D01*
X95449261Y-32011904D01*
X95401642Y-31964285D01*
%TO.C,R4*%
X90749380Y-41235333D02*
X90273190Y-40902000D01*
X90749380Y-40663904D02*
X89749380Y-40663904D01*
X89749380Y-41044857D01*
X89797000Y-41140095D01*
X89844619Y-41187714D01*
X89939857Y-41235333D01*
X90082714Y-41235333D01*
X90177952Y-41187714D01*
X90225571Y-41140095D01*
X90273190Y-41044857D01*
X90273190Y-40663904D01*
X90082714Y-42092476D02*
X90749380Y-42092476D01*
X89701761Y-41854380D02*
X90416047Y-41616285D01*
X90416047Y-42235333D01*
%TO.C,R3*%
X90749380Y-39330333D02*
X90273190Y-38997000D01*
X90749380Y-38758904D02*
X89749380Y-38758904D01*
X89749380Y-39139857D01*
X89797000Y-39235095D01*
X89844619Y-39282714D01*
X89939857Y-39330333D01*
X90082714Y-39330333D01*
X90177952Y-39282714D01*
X90225571Y-39235095D01*
X90273190Y-39139857D01*
X90273190Y-38758904D01*
X89749380Y-39663666D02*
X89749380Y-40282714D01*
X90130333Y-39949380D01*
X90130333Y-40092238D01*
X90177952Y-40187476D01*
X90225571Y-40235095D01*
X90320809Y-40282714D01*
X90558904Y-40282714D01*
X90654142Y-40235095D01*
X90701761Y-40187476D01*
X90749380Y-40092238D01*
X90749380Y-39806523D01*
X90701761Y-39711285D01*
X90654142Y-39663666D01*
%TO.C,R2*%
X73651166Y-38170380D02*
X73984500Y-37694190D01*
X74222595Y-38170380D02*
X74222595Y-37170380D01*
X73841642Y-37170380D01*
X73746404Y-37218000D01*
X73698785Y-37265619D01*
X73651166Y-37360857D01*
X73651166Y-37503714D01*
X73698785Y-37598952D01*
X73746404Y-37646571D01*
X73841642Y-37694190D01*
X74222595Y-37694190D01*
X73270214Y-37265619D02*
X73222595Y-37218000D01*
X73127357Y-37170380D01*
X72889261Y-37170380D01*
X72794023Y-37218000D01*
X72746404Y-37265619D01*
X72698785Y-37360857D01*
X72698785Y-37456095D01*
X72746404Y-37598952D01*
X73317833Y-38170380D01*
X72698785Y-38170380D01*
%TO.C,R1*%
X81876166Y-38424380D02*
X82209500Y-37948190D01*
X82447595Y-38424380D02*
X82447595Y-37424380D01*
X82066642Y-37424380D01*
X81971404Y-37472000D01*
X81923785Y-37519619D01*
X81876166Y-37614857D01*
X81876166Y-37757714D01*
X81923785Y-37852952D01*
X81971404Y-37900571D01*
X82066642Y-37948190D01*
X82447595Y-37948190D01*
X80923785Y-38424380D02*
X81495214Y-38424380D01*
X81209500Y-38424380D02*
X81209500Y-37424380D01*
X81304738Y-37567238D01*
X81399976Y-37662476D01*
X81495214Y-37710095D01*
%TO.C,Q2*%
X65760619Y-45690761D02*
X65713000Y-45595523D01*
X65617761Y-45500285D01*
X65474904Y-45357428D01*
X65427285Y-45262190D01*
X65427285Y-45166952D01*
X65665380Y-45214571D02*
X65617761Y-45119333D01*
X65522523Y-45024095D01*
X65332047Y-44976476D01*
X64998714Y-44976476D01*
X64808238Y-45024095D01*
X64713000Y-45119333D01*
X64665380Y-45214571D01*
X64665380Y-45405047D01*
X64713000Y-45500285D01*
X64808238Y-45595523D01*
X64998714Y-45643142D01*
X65332047Y-45643142D01*
X65522523Y-45595523D01*
X65617761Y-45500285D01*
X65665380Y-45405047D01*
X65665380Y-45214571D01*
X64760619Y-46024095D02*
X64713000Y-46071714D01*
X64665380Y-46166952D01*
X64665380Y-46405047D01*
X64713000Y-46500285D01*
X64760619Y-46547904D01*
X64855857Y-46595523D01*
X64951095Y-46595523D01*
X65093952Y-46547904D01*
X65665380Y-45976476D01*
X65665380Y-46595523D01*
%TO.C,C3*%
X82589666Y-33171642D02*
X82637285Y-33219261D01*
X82780142Y-33266880D01*
X82875380Y-33266880D01*
X83018238Y-33219261D01*
X83113476Y-33124023D01*
X83161095Y-33028785D01*
X83208714Y-32838309D01*
X83208714Y-32695452D01*
X83161095Y-32504976D01*
X83113476Y-32409738D01*
X83018238Y-32314500D01*
X82875380Y-32266880D01*
X82780142Y-32266880D01*
X82637285Y-32314500D01*
X82589666Y-32362119D01*
X82256333Y-32266880D02*
X81637285Y-32266880D01*
X81970619Y-32647833D01*
X81827761Y-32647833D01*
X81732523Y-32695452D01*
X81684904Y-32743071D01*
X81637285Y-32838309D01*
X81637285Y-33076404D01*
X81684904Y-33171642D01*
X81732523Y-33219261D01*
X81827761Y-33266880D01*
X82113476Y-33266880D01*
X82208714Y-33219261D01*
X82256333Y-33171642D01*
%TO.C,C2*%
X78589142Y-27597833D02*
X78636761Y-27550214D01*
X78684380Y-27407357D01*
X78684380Y-27312119D01*
X78636761Y-27169261D01*
X78541523Y-27074023D01*
X78446285Y-27026404D01*
X78255809Y-26978785D01*
X78112952Y-26978785D01*
X77922476Y-27026404D01*
X77827238Y-27074023D01*
X77732000Y-27169261D01*
X77684380Y-27312119D01*
X77684380Y-27407357D01*
X77732000Y-27550214D01*
X77779619Y-27597833D01*
X77779619Y-27978785D02*
X77732000Y-28026404D01*
X77684380Y-28121642D01*
X77684380Y-28359738D01*
X77732000Y-28454976D01*
X77779619Y-28502595D01*
X77874857Y-28550214D01*
X77970095Y-28550214D01*
X78112952Y-28502595D01*
X78684380Y-27931166D01*
X78684380Y-28550214D01*
%TO.C,C1*%
X67095666Y-27184142D02*
X67143285Y-27231761D01*
X67286142Y-27279380D01*
X67381380Y-27279380D01*
X67524238Y-27231761D01*
X67619476Y-27136523D01*
X67667095Y-27041285D01*
X67714714Y-26850809D01*
X67714714Y-26707952D01*
X67667095Y-26517476D01*
X67619476Y-26422238D01*
X67524238Y-26327000D01*
X67381380Y-26279380D01*
X67286142Y-26279380D01*
X67143285Y-26327000D01*
X67095666Y-26374619D01*
X66143285Y-27279380D02*
X66714714Y-27279380D01*
X66429000Y-27279380D02*
X66429000Y-26279380D01*
X66524238Y-26422238D01*
X66619476Y-26517476D01*
X66714714Y-26565095D01*
%TD*%
M02*
