%TF.GenerationSoftware,KiCad,Pcbnew,(5.1.6)-1*%
%TF.CreationDate,2020-10-06T09:22:04-05:00*%
%TF.ProjectId,desk_lamp,6465736b-5f6c-4616-9d70-2e6b69636164,rev?*%
%TF.SameCoordinates,Original*%
%TF.FileFunction,Paste,Bot*%
%TF.FilePolarity,Positive*%
%FSLAX46Y46*%
G04 Gerber Fmt 4.6, Leading zero omitted, Abs format (unit mm)*
G04 Created by KiCad (PCBNEW (5.1.6)-1) date 2020-10-06 09:22:04*
%MOMM*%
%LPD*%
G01*
G04 APERTURE LIST*
%ADD10R,5.250000X4.550000*%
%ADD11R,1.100000X4.600000*%
G04 APERTURE END LIST*
%TO.C,R9*%
G36*
G01*
X92308500Y-33198750D02*
X92308500Y-34111250D01*
G75*
G02*
X92064750Y-34355000I-243750J0D01*
G01*
X91577250Y-34355000D01*
G75*
G02*
X91333500Y-34111250I0J243750D01*
G01*
X91333500Y-33198750D01*
G75*
G02*
X91577250Y-32955000I243750J0D01*
G01*
X92064750Y-32955000D01*
G75*
G02*
X92308500Y-33198750I0J-243750D01*
G01*
G37*
G36*
G01*
X94183500Y-33198750D02*
X94183500Y-34111250D01*
G75*
G02*
X93939750Y-34355000I-243750J0D01*
G01*
X93452250Y-34355000D01*
G75*
G02*
X93208500Y-34111250I0J243750D01*
G01*
X93208500Y-33198750D01*
G75*
G02*
X93452250Y-32955000I243750J0D01*
G01*
X93939750Y-32955000D01*
G75*
G02*
X94183500Y-33198750I0J-243750D01*
G01*
G37*
%TD*%
%TO.C,R8*%
G36*
G01*
X92308500Y-35103750D02*
X92308500Y-36016250D01*
G75*
G02*
X92064750Y-36260000I-243750J0D01*
G01*
X91577250Y-36260000D01*
G75*
G02*
X91333500Y-36016250I0J243750D01*
G01*
X91333500Y-35103750D01*
G75*
G02*
X91577250Y-34860000I243750J0D01*
G01*
X92064750Y-34860000D01*
G75*
G02*
X92308500Y-35103750I0J-243750D01*
G01*
G37*
G36*
G01*
X94183500Y-35103750D02*
X94183500Y-36016250D01*
G75*
G02*
X93939750Y-36260000I-243750J0D01*
G01*
X93452250Y-36260000D01*
G75*
G02*
X93208500Y-36016250I0J243750D01*
G01*
X93208500Y-35103750D01*
G75*
G02*
X93452250Y-34860000I243750J0D01*
G01*
X93939750Y-34860000D01*
G75*
G02*
X94183500Y-35103750I0J-243750D01*
G01*
G37*
%TD*%
%TO.C,R7*%
G36*
G01*
X98034500Y-34111250D02*
X98034500Y-33198750D01*
G75*
G02*
X98278250Y-32955000I243750J0D01*
G01*
X98765750Y-32955000D01*
G75*
G02*
X99009500Y-33198750I0J-243750D01*
G01*
X99009500Y-34111250D01*
G75*
G02*
X98765750Y-34355000I-243750J0D01*
G01*
X98278250Y-34355000D01*
G75*
G02*
X98034500Y-34111250I0J243750D01*
G01*
G37*
G36*
G01*
X96159500Y-34111250D02*
X96159500Y-33198750D01*
G75*
G02*
X96403250Y-32955000I243750J0D01*
G01*
X96890750Y-32955000D01*
G75*
G02*
X97134500Y-33198750I0J-243750D01*
G01*
X97134500Y-34111250D01*
G75*
G02*
X96890750Y-34355000I-243750J0D01*
G01*
X96403250Y-34355000D01*
G75*
G02*
X96159500Y-34111250I0J243750D01*
G01*
G37*
%TD*%
%TO.C,R6*%
G36*
G01*
X98034500Y-36016250D02*
X98034500Y-35103750D01*
G75*
G02*
X98278250Y-34860000I243750J0D01*
G01*
X98765750Y-34860000D01*
G75*
G02*
X99009500Y-35103750I0J-243750D01*
G01*
X99009500Y-36016250D01*
G75*
G02*
X98765750Y-36260000I-243750J0D01*
G01*
X98278250Y-36260000D01*
G75*
G02*
X98034500Y-36016250I0J243750D01*
G01*
G37*
G36*
G01*
X96159500Y-36016250D02*
X96159500Y-35103750D01*
G75*
G02*
X96403250Y-34860000I243750J0D01*
G01*
X96890750Y-34860000D01*
G75*
G02*
X97134500Y-35103750I0J-243750D01*
G01*
X97134500Y-36016250D01*
G75*
G02*
X96890750Y-36260000I-243750J0D01*
G01*
X96403250Y-36260000D01*
G75*
G02*
X96159500Y-36016250I0J243750D01*
G01*
G37*
%TD*%
%TO.C,R5*%
G36*
G01*
X92308500Y-31293750D02*
X92308500Y-32206250D01*
G75*
G02*
X92064750Y-32450000I-243750J0D01*
G01*
X91577250Y-32450000D01*
G75*
G02*
X91333500Y-32206250I0J243750D01*
G01*
X91333500Y-31293750D01*
G75*
G02*
X91577250Y-31050000I243750J0D01*
G01*
X92064750Y-31050000D01*
G75*
G02*
X92308500Y-31293750I0J-243750D01*
G01*
G37*
G36*
G01*
X94183500Y-31293750D02*
X94183500Y-32206250D01*
G75*
G02*
X93939750Y-32450000I-243750J0D01*
G01*
X93452250Y-32450000D01*
G75*
G02*
X93208500Y-32206250I0J243750D01*
G01*
X93208500Y-31293750D01*
G75*
G02*
X93452250Y-31050000I243750J0D01*
G01*
X93939750Y-31050000D01*
G75*
G02*
X94183500Y-31293750I0J-243750D01*
G01*
G37*
%TD*%
%TO.C,R4*%
G36*
G01*
X87482500Y-40945750D02*
X87482500Y-41858250D01*
G75*
G02*
X87238750Y-42102000I-243750J0D01*
G01*
X86751250Y-42102000D01*
G75*
G02*
X86507500Y-41858250I0J243750D01*
G01*
X86507500Y-40945750D01*
G75*
G02*
X86751250Y-40702000I243750J0D01*
G01*
X87238750Y-40702000D01*
G75*
G02*
X87482500Y-40945750I0J-243750D01*
G01*
G37*
G36*
G01*
X89357500Y-40945750D02*
X89357500Y-41858250D01*
G75*
G02*
X89113750Y-42102000I-243750J0D01*
G01*
X88626250Y-42102000D01*
G75*
G02*
X88382500Y-41858250I0J243750D01*
G01*
X88382500Y-40945750D01*
G75*
G02*
X88626250Y-40702000I243750J0D01*
G01*
X89113750Y-40702000D01*
G75*
G02*
X89357500Y-40945750I0J-243750D01*
G01*
G37*
%TD*%
%TO.C,R3*%
G36*
G01*
X87482500Y-39040750D02*
X87482500Y-39953250D01*
G75*
G02*
X87238750Y-40197000I-243750J0D01*
G01*
X86751250Y-40197000D01*
G75*
G02*
X86507500Y-39953250I0J243750D01*
G01*
X86507500Y-39040750D01*
G75*
G02*
X86751250Y-38797000I243750J0D01*
G01*
X87238750Y-38797000D01*
G75*
G02*
X87482500Y-39040750I0J-243750D01*
G01*
G37*
G36*
G01*
X89357500Y-39040750D02*
X89357500Y-39953250D01*
G75*
G02*
X89113750Y-40197000I-243750J0D01*
G01*
X88626250Y-40197000D01*
G75*
G02*
X88382500Y-39953250I0J243750D01*
G01*
X88382500Y-39040750D01*
G75*
G02*
X88626250Y-38797000I243750J0D01*
G01*
X89113750Y-38797000D01*
G75*
G02*
X89357500Y-39040750I0J-243750D01*
G01*
G37*
%TD*%
%TO.C,R2*%
G36*
G01*
X68824500Y-36397250D02*
X68824500Y-35484750D01*
G75*
G02*
X69068250Y-35241000I243750J0D01*
G01*
X69555750Y-35241000D01*
G75*
G02*
X69799500Y-35484750I0J-243750D01*
G01*
X69799500Y-36397250D01*
G75*
G02*
X69555750Y-36641000I-243750J0D01*
G01*
X69068250Y-36641000D01*
G75*
G02*
X68824500Y-36397250I0J243750D01*
G01*
G37*
G36*
G01*
X66949500Y-36397250D02*
X66949500Y-35484750D01*
G75*
G02*
X67193250Y-35241000I243750J0D01*
G01*
X67680750Y-35241000D01*
G75*
G02*
X67924500Y-35484750I0J-243750D01*
G01*
X67924500Y-36397250D01*
G75*
G02*
X67680750Y-36641000I-243750J0D01*
G01*
X67193250Y-36641000D01*
G75*
G02*
X66949500Y-36397250I0J243750D01*
G01*
G37*
%TD*%
%TO.C,R1*%
G36*
G01*
X82159500Y-36778250D02*
X82159500Y-35865750D01*
G75*
G02*
X82403250Y-35622000I243750J0D01*
G01*
X82890750Y-35622000D01*
G75*
G02*
X83134500Y-35865750I0J-243750D01*
G01*
X83134500Y-36778250D01*
G75*
G02*
X82890750Y-37022000I-243750J0D01*
G01*
X82403250Y-37022000D01*
G75*
G02*
X82159500Y-36778250I0J243750D01*
G01*
G37*
G36*
G01*
X80284500Y-36778250D02*
X80284500Y-35865750D01*
G75*
G02*
X80528250Y-35622000I243750J0D01*
G01*
X81015750Y-35622000D01*
G75*
G02*
X81259500Y-35865750I0J-243750D01*
G01*
X81259500Y-36778250D01*
G75*
G02*
X81015750Y-37022000I-243750J0D01*
G01*
X80528250Y-37022000D01*
G75*
G02*
X80284500Y-36778250I0J243750D01*
G01*
G37*
%TD*%
D10*
%TO.C,Q2*%
X74638000Y-46736000D03*
X69088000Y-51586000D03*
X69088000Y-46736000D03*
X74638000Y-51586000D03*
D11*
X74403000Y-40011000D03*
X71863000Y-40011000D03*
X69323000Y-40011000D03*
%TD*%
%TO.C,C3*%
G36*
G01*
X82879250Y-30157000D02*
X81966750Y-30157000D01*
G75*
G02*
X81723000Y-29913250I0J243750D01*
G01*
X81723000Y-29425750D01*
G75*
G02*
X81966750Y-29182000I243750J0D01*
G01*
X82879250Y-29182000D01*
G75*
G02*
X83123000Y-29425750I0J-243750D01*
G01*
X83123000Y-29913250D01*
G75*
G02*
X82879250Y-30157000I-243750J0D01*
G01*
G37*
G36*
G01*
X82879250Y-32032000D02*
X81966750Y-32032000D01*
G75*
G02*
X81723000Y-31788250I0J243750D01*
G01*
X81723000Y-31300750D01*
G75*
G02*
X81966750Y-31057000I243750J0D01*
G01*
X82879250Y-31057000D01*
G75*
G02*
X83123000Y-31300750I0J-243750D01*
G01*
X83123000Y-31788250D01*
G75*
G02*
X82879250Y-32032000I-243750J0D01*
G01*
G37*
%TD*%
%TO.C,C2*%
G36*
G01*
X76910250Y-27314500D02*
X75997750Y-27314500D01*
G75*
G02*
X75754000Y-27070750I0J243750D01*
G01*
X75754000Y-26583250D01*
G75*
G02*
X75997750Y-26339500I243750J0D01*
G01*
X76910250Y-26339500D01*
G75*
G02*
X77154000Y-26583250I0J-243750D01*
G01*
X77154000Y-27070750D01*
G75*
G02*
X76910250Y-27314500I-243750J0D01*
G01*
G37*
G36*
G01*
X76910250Y-29189500D02*
X75997750Y-29189500D01*
G75*
G02*
X75754000Y-28945750I0J243750D01*
G01*
X75754000Y-28458250D01*
G75*
G02*
X75997750Y-28214500I243750J0D01*
G01*
X76910250Y-28214500D01*
G75*
G02*
X77154000Y-28458250I0J-243750D01*
G01*
X77154000Y-28945750D01*
G75*
G02*
X76910250Y-29189500I-243750J0D01*
G01*
G37*
%TD*%
%TO.C,C1*%
G36*
G01*
X67385250Y-28838500D02*
X66472750Y-28838500D01*
G75*
G02*
X66229000Y-28594750I0J243750D01*
G01*
X66229000Y-28107250D01*
G75*
G02*
X66472750Y-27863500I243750J0D01*
G01*
X67385250Y-27863500D01*
G75*
G02*
X67629000Y-28107250I0J-243750D01*
G01*
X67629000Y-28594750D01*
G75*
G02*
X67385250Y-28838500I-243750J0D01*
G01*
G37*
G36*
G01*
X67385250Y-30713500D02*
X66472750Y-30713500D01*
G75*
G02*
X66229000Y-30469750I0J243750D01*
G01*
X66229000Y-29982250D01*
G75*
G02*
X66472750Y-29738500I243750J0D01*
G01*
X67385250Y-29738500D01*
G75*
G02*
X67629000Y-29982250I0J-243750D01*
G01*
X67629000Y-30469750D01*
G75*
G02*
X67385250Y-30713500I-243750J0D01*
G01*
G37*
%TD*%
M02*
