%TF.GenerationSoftware,KiCad,Pcbnew,(5.1.6)-1*%
%TF.CreationDate,2020-09-18T11:49:07-05:00*%
%TF.ProjectId,desk_lamp,6465736b-5f6c-4616-9d70-2e6b69636164,rev?*%
%TF.SameCoordinates,Original*%
%TF.FileFunction,Paste,Top*%
%TF.FilePolarity,Positive*%
%FSLAX46Y46*%
G04 Gerber Fmt 4.6, Leading zero omitted, Abs format (unit mm)*
G04 Created by KiCad (PCBNEW (5.1.6)-1) date 2020-09-18 11:49:07*
%MOMM*%
%LPD*%
G01*
G04 APERTURE LIST*
%ADD10R,0.800000X0.900000*%
%ADD11R,3.800000X2.030000*%
%ADD12C,0.100000*%
%ADD13R,0.650000X0.400000*%
%ADD14R,1.300000X0.900000*%
G04 APERTURE END LIST*
%TO.C,U3*%
G36*
G01*
X91063000Y-37573000D02*
X91563000Y-37573000D01*
G75*
G02*
X91763000Y-37773000I0J-200000D01*
G01*
X91763000Y-38173000D01*
G75*
G02*
X91563000Y-38373000I-200000J0D01*
G01*
X91063000Y-38373000D01*
G75*
G02*
X90863000Y-38173000I0J200000D01*
G01*
X90863000Y-37773000D01*
G75*
G02*
X91063000Y-37573000I200000J0D01*
G01*
G37*
G36*
G01*
X91063000Y-36123000D02*
X91563000Y-36123000D01*
G75*
G02*
X91763000Y-36323000I0J-200000D01*
G01*
X91763000Y-36723000D01*
G75*
G02*
X91563000Y-36923000I-200000J0D01*
G01*
X91063000Y-36923000D01*
G75*
G02*
X90863000Y-36723000I0J200000D01*
G01*
X90863000Y-36323000D01*
G75*
G02*
X91063000Y-36123000I200000J0D01*
G01*
G37*
G36*
G01*
X92913000Y-37573000D02*
X93413000Y-37573000D01*
G75*
G02*
X93613000Y-37773000I0J-200000D01*
G01*
X93613000Y-38173000D01*
G75*
G02*
X93413000Y-38373000I-200000J0D01*
G01*
X92913000Y-38373000D01*
G75*
G02*
X92713000Y-38173000I0J200000D01*
G01*
X92713000Y-37773000D01*
G75*
G02*
X92913000Y-37573000I200000J0D01*
G01*
G37*
G36*
G01*
X92913000Y-36123000D02*
X93413000Y-36123000D01*
G75*
G02*
X93613000Y-36323000I0J-200000D01*
G01*
X93613000Y-36723000D01*
G75*
G02*
X93413000Y-36923000I-200000J0D01*
G01*
X92913000Y-36923000D01*
G75*
G02*
X92713000Y-36723000I0J200000D01*
G01*
X92713000Y-36323000D01*
G75*
G02*
X92913000Y-36123000I200000J0D01*
G01*
G37*
%TD*%
D10*
%TO.C,Q1*%
X77917000Y-37433000D03*
X76967000Y-35433000D03*
X78867000Y-35433000D03*
%TD*%
D11*
%TO.C,TP8*%
X81940400Y-23520400D03*
%TD*%
%TO.C,TP7*%
X76454000Y-23495000D03*
%TD*%
%TO.C,TP6*%
X70637400Y-23393400D03*
%TD*%
%TO.C,TP5*%
X81661000Y-40259000D03*
%TD*%
%TO.C,TP4*%
X87884000Y-48768000D03*
%TD*%
%TO.C,TP3*%
X87909400Y-53619400D03*
%TD*%
%TO.C,TP2*%
X58928000Y-23368000D03*
%TD*%
%TO.C,TP1*%
X65024000Y-23368000D03*
%TD*%
%TO.C,U5*%
G36*
G01*
X99290000Y-31392000D02*
X99290000Y-31092000D01*
G75*
G02*
X99440000Y-30942000I150000J0D01*
G01*
X101090000Y-30942000D01*
G75*
G02*
X101240000Y-31092000I0J-150000D01*
G01*
X101240000Y-31392000D01*
G75*
G02*
X101090000Y-31542000I-150000J0D01*
G01*
X99440000Y-31542000D01*
G75*
G02*
X99290000Y-31392000I0J150000D01*
G01*
G37*
G36*
G01*
X99290000Y-32662000D02*
X99290000Y-32362000D01*
G75*
G02*
X99440000Y-32212000I150000J0D01*
G01*
X101090000Y-32212000D01*
G75*
G02*
X101240000Y-32362000I0J-150000D01*
G01*
X101240000Y-32662000D01*
G75*
G02*
X101090000Y-32812000I-150000J0D01*
G01*
X99440000Y-32812000D01*
G75*
G02*
X99290000Y-32662000I0J150000D01*
G01*
G37*
G36*
G01*
X99290000Y-33932000D02*
X99290000Y-33632000D01*
G75*
G02*
X99440000Y-33482000I150000J0D01*
G01*
X101090000Y-33482000D01*
G75*
G02*
X101240000Y-33632000I0J-150000D01*
G01*
X101240000Y-33932000D01*
G75*
G02*
X101090000Y-34082000I-150000J0D01*
G01*
X99440000Y-34082000D01*
G75*
G02*
X99290000Y-33932000I0J150000D01*
G01*
G37*
G36*
G01*
X99290000Y-35202000D02*
X99290000Y-34902000D01*
G75*
G02*
X99440000Y-34752000I150000J0D01*
G01*
X101090000Y-34752000D01*
G75*
G02*
X101240000Y-34902000I0J-150000D01*
G01*
X101240000Y-35202000D01*
G75*
G02*
X101090000Y-35352000I-150000J0D01*
G01*
X99440000Y-35352000D01*
G75*
G02*
X99290000Y-35202000I0J150000D01*
G01*
G37*
G36*
G01*
X94340000Y-35202000D02*
X94340000Y-34902000D01*
G75*
G02*
X94490000Y-34752000I150000J0D01*
G01*
X96140000Y-34752000D01*
G75*
G02*
X96290000Y-34902000I0J-150000D01*
G01*
X96290000Y-35202000D01*
G75*
G02*
X96140000Y-35352000I-150000J0D01*
G01*
X94490000Y-35352000D01*
G75*
G02*
X94340000Y-35202000I0J150000D01*
G01*
G37*
G36*
G01*
X94340000Y-33932000D02*
X94340000Y-33632000D01*
G75*
G02*
X94490000Y-33482000I150000J0D01*
G01*
X96140000Y-33482000D01*
G75*
G02*
X96290000Y-33632000I0J-150000D01*
G01*
X96290000Y-33932000D01*
G75*
G02*
X96140000Y-34082000I-150000J0D01*
G01*
X94490000Y-34082000D01*
G75*
G02*
X94340000Y-33932000I0J150000D01*
G01*
G37*
G36*
G01*
X94340000Y-32662000D02*
X94340000Y-32362000D01*
G75*
G02*
X94490000Y-32212000I150000J0D01*
G01*
X96140000Y-32212000D01*
G75*
G02*
X96290000Y-32362000I0J-150000D01*
G01*
X96290000Y-32662000D01*
G75*
G02*
X96140000Y-32812000I-150000J0D01*
G01*
X94490000Y-32812000D01*
G75*
G02*
X94340000Y-32662000I0J150000D01*
G01*
G37*
G36*
G01*
X94340000Y-31392000D02*
X94340000Y-31092000D01*
G75*
G02*
X94490000Y-30942000I150000J0D01*
G01*
X96140000Y-30942000D01*
G75*
G02*
X96290000Y-31092000I0J-150000D01*
G01*
X96290000Y-31392000D01*
G75*
G02*
X96140000Y-31542000I-150000J0D01*
G01*
X94490000Y-31542000D01*
G75*
G02*
X94340000Y-31392000I0J150000D01*
G01*
G37*
%TD*%
D12*
%TO.C,U4*%
G36*
X88177418Y-31866517D02*
G01*
X88183726Y-31845721D01*
X88193971Y-31826556D01*
X88207757Y-31809757D01*
X88224556Y-31795971D01*
X88243721Y-31785726D01*
X88264517Y-31779418D01*
X88286144Y-31777288D01*
X88507856Y-31777288D01*
X88529483Y-31779418D01*
X88550279Y-31785726D01*
X88569444Y-31795971D01*
X88586243Y-31809757D01*
X88600029Y-31826556D01*
X88610274Y-31845721D01*
X88616582Y-31866517D01*
X88618712Y-31888144D01*
X88618712Y-32109856D01*
X88616582Y-32131483D01*
X88610274Y-32152279D01*
X88600029Y-32171444D01*
X88586243Y-32188243D01*
X88569444Y-32202029D01*
X88550279Y-32212274D01*
X88529483Y-32218582D01*
X88507856Y-32220712D01*
X88397473Y-32220712D01*
X88375846Y-32218582D01*
X88355050Y-32212274D01*
X88335885Y-32202029D01*
X88319086Y-32188243D01*
X88207757Y-32076914D01*
X88193971Y-32060115D01*
X88183726Y-32040950D01*
X88177418Y-32020154D01*
X88175288Y-31998527D01*
X88175288Y-31888144D01*
X88177418Y-31866517D01*
G37*
G36*
X85627418Y-31866517D02*
G01*
X85633726Y-31845721D01*
X85643971Y-31826556D01*
X85657757Y-31809757D01*
X85674556Y-31795971D01*
X85693721Y-31785726D01*
X85714517Y-31779418D01*
X85736144Y-31777288D01*
X85957856Y-31777288D01*
X85979483Y-31779418D01*
X86000279Y-31785726D01*
X86019444Y-31795971D01*
X86036243Y-31809757D01*
X86050029Y-31826556D01*
X86060274Y-31845721D01*
X86066582Y-31866517D01*
X86068712Y-31888144D01*
X86068712Y-31998527D01*
X86066582Y-32020154D01*
X86060274Y-32040950D01*
X86050029Y-32060115D01*
X86036243Y-32076914D01*
X85924914Y-32188243D01*
X85908115Y-32202029D01*
X85888950Y-32212274D01*
X85868154Y-32218582D01*
X85846527Y-32220712D01*
X85736144Y-32220712D01*
X85714517Y-32218582D01*
X85693721Y-32212274D01*
X85674556Y-32202029D01*
X85657757Y-32188243D01*
X85643971Y-32171444D01*
X85633726Y-32152279D01*
X85627418Y-32131483D01*
X85625288Y-32109856D01*
X85625288Y-31888144D01*
X85627418Y-31866517D01*
G37*
G36*
X88177418Y-34527846D02*
G01*
X88183726Y-34507050D01*
X88193971Y-34487885D01*
X88207757Y-34471086D01*
X88319086Y-34359757D01*
X88335885Y-34345971D01*
X88355050Y-34335726D01*
X88375846Y-34329418D01*
X88397473Y-34327288D01*
X88507856Y-34327288D01*
X88529483Y-34329418D01*
X88550279Y-34335726D01*
X88569444Y-34345971D01*
X88586243Y-34359757D01*
X88600029Y-34376556D01*
X88610274Y-34395721D01*
X88616582Y-34416517D01*
X88618712Y-34438144D01*
X88618712Y-34659856D01*
X88616582Y-34681483D01*
X88610274Y-34702279D01*
X88600029Y-34721444D01*
X88586243Y-34738243D01*
X88569444Y-34752029D01*
X88550279Y-34762274D01*
X88529483Y-34768582D01*
X88507856Y-34770712D01*
X88286144Y-34770712D01*
X88264517Y-34768582D01*
X88243721Y-34762274D01*
X88224556Y-34752029D01*
X88207757Y-34738243D01*
X88193971Y-34721444D01*
X88183726Y-34702279D01*
X88177418Y-34681483D01*
X88175288Y-34659856D01*
X88175288Y-34549473D01*
X88177418Y-34527846D01*
G37*
G36*
X85627418Y-34416517D02*
G01*
X85633726Y-34395721D01*
X85643971Y-34376556D01*
X85657757Y-34359757D01*
X85674556Y-34345971D01*
X85693721Y-34335726D01*
X85714517Y-34329418D01*
X85736144Y-34327288D01*
X85846527Y-34327288D01*
X85868154Y-34329418D01*
X85888950Y-34335726D01*
X85908115Y-34345971D01*
X85924914Y-34359757D01*
X86036243Y-34471086D01*
X86050029Y-34487885D01*
X86060274Y-34507050D01*
X86066582Y-34527846D01*
X86068712Y-34549473D01*
X86068712Y-34659856D01*
X86066582Y-34681483D01*
X86060274Y-34702279D01*
X86050029Y-34721444D01*
X86036243Y-34738243D01*
X86019444Y-34752029D01*
X86000279Y-34762274D01*
X85979483Y-34768582D01*
X85957856Y-34770712D01*
X85736144Y-34770712D01*
X85714517Y-34768582D01*
X85693721Y-34762274D01*
X85674556Y-34752029D01*
X85657757Y-34738243D01*
X85643971Y-34721444D01*
X85633726Y-34702279D01*
X85627418Y-34681483D01*
X85625288Y-34659856D01*
X85625288Y-34438144D01*
X85627418Y-34416517D01*
G37*
G36*
X88177091Y-32524111D02*
G01*
X88182429Y-32506512D01*
X88191098Y-32490294D01*
X88202764Y-32476078D01*
X88280479Y-32398363D01*
X88294695Y-32386697D01*
X88310913Y-32378028D01*
X88328512Y-32372690D01*
X88346813Y-32370887D01*
X88524902Y-32370887D01*
X88543203Y-32372690D01*
X88560802Y-32378028D01*
X88577020Y-32386697D01*
X88591236Y-32398363D01*
X88602902Y-32412579D01*
X88611571Y-32428797D01*
X88616909Y-32446396D01*
X88618712Y-32464697D01*
X88618712Y-33083303D01*
X88616909Y-33101604D01*
X88611571Y-33119203D01*
X88602902Y-33135421D01*
X88591236Y-33149637D01*
X88577020Y-33161303D01*
X88560802Y-33169972D01*
X88543203Y-33175310D01*
X88524902Y-33177113D01*
X88346813Y-33177113D01*
X88328512Y-33175310D01*
X88310913Y-33169972D01*
X88294695Y-33161303D01*
X88280479Y-33149637D01*
X88202764Y-33071922D01*
X88191098Y-33057706D01*
X88182429Y-33041488D01*
X88177091Y-33023889D01*
X88175288Y-33005588D01*
X88175288Y-32542412D01*
X88177091Y-32524111D01*
G37*
G36*
X88177091Y-33524111D02*
G01*
X88182429Y-33506512D01*
X88191098Y-33490294D01*
X88202764Y-33476078D01*
X88280479Y-33398363D01*
X88294695Y-33386697D01*
X88310913Y-33378028D01*
X88328512Y-33372690D01*
X88346813Y-33370887D01*
X88524902Y-33370887D01*
X88543203Y-33372690D01*
X88560802Y-33378028D01*
X88577020Y-33386697D01*
X88591236Y-33398363D01*
X88602902Y-33412579D01*
X88611571Y-33428797D01*
X88616909Y-33446396D01*
X88618712Y-33464697D01*
X88618712Y-34083303D01*
X88616909Y-34101604D01*
X88611571Y-34119203D01*
X88602902Y-34135421D01*
X88591236Y-34149637D01*
X88577020Y-34161303D01*
X88560802Y-34169972D01*
X88543203Y-34175310D01*
X88524902Y-34177113D01*
X88346813Y-34177113D01*
X88328512Y-34175310D01*
X88310913Y-34169972D01*
X88294695Y-34161303D01*
X88280479Y-34149637D01*
X88202764Y-34071922D01*
X88191098Y-34057706D01*
X88182429Y-34041488D01*
X88177091Y-34023889D01*
X88175288Y-34005588D01*
X88175288Y-33542412D01*
X88177091Y-33524111D01*
G37*
G36*
X85627091Y-32446396D02*
G01*
X85632429Y-32428797D01*
X85641098Y-32412579D01*
X85652764Y-32398363D01*
X85666980Y-32386697D01*
X85683198Y-32378028D01*
X85700797Y-32372690D01*
X85719098Y-32370887D01*
X85897187Y-32370887D01*
X85915488Y-32372690D01*
X85933087Y-32378028D01*
X85949305Y-32386697D01*
X85963521Y-32398363D01*
X86041236Y-32476078D01*
X86052902Y-32490294D01*
X86061571Y-32506512D01*
X86066909Y-32524111D01*
X86068712Y-32542412D01*
X86068712Y-33005588D01*
X86066909Y-33023889D01*
X86061571Y-33041488D01*
X86052902Y-33057706D01*
X86041236Y-33071922D01*
X85963521Y-33149637D01*
X85949305Y-33161303D01*
X85933087Y-33169972D01*
X85915488Y-33175310D01*
X85897187Y-33177113D01*
X85719098Y-33177113D01*
X85700797Y-33175310D01*
X85683198Y-33169972D01*
X85666980Y-33161303D01*
X85652764Y-33149637D01*
X85641098Y-33135421D01*
X85632429Y-33119203D01*
X85627091Y-33101604D01*
X85625288Y-33083303D01*
X85625288Y-32464697D01*
X85627091Y-32446396D01*
G37*
G36*
X85627091Y-33446396D02*
G01*
X85632429Y-33428797D01*
X85641098Y-33412579D01*
X85652764Y-33398363D01*
X85666980Y-33386697D01*
X85683198Y-33378028D01*
X85700797Y-33372690D01*
X85719098Y-33370887D01*
X85897187Y-33370887D01*
X85915488Y-33372690D01*
X85933087Y-33378028D01*
X85949305Y-33386697D01*
X85963521Y-33398363D01*
X86041236Y-33476078D01*
X86052902Y-33490294D01*
X86061571Y-33506512D01*
X86066909Y-33524111D01*
X86068712Y-33542412D01*
X86068712Y-34005588D01*
X86066909Y-34023889D01*
X86061571Y-34041488D01*
X86052902Y-34057706D01*
X86041236Y-34071922D01*
X85963521Y-34149637D01*
X85949305Y-34161303D01*
X85933087Y-34169972D01*
X85915488Y-34175310D01*
X85897187Y-34177113D01*
X85719098Y-34177113D01*
X85700797Y-34175310D01*
X85683198Y-34169972D01*
X85666980Y-34161303D01*
X85652764Y-34149637D01*
X85641098Y-34135421D01*
X85632429Y-34119203D01*
X85627091Y-34101604D01*
X85625288Y-34083303D01*
X85625288Y-33464697D01*
X85627091Y-33446396D01*
G37*
G36*
X87220690Y-31852797D02*
G01*
X87226028Y-31835198D01*
X87234697Y-31818980D01*
X87246363Y-31804764D01*
X87260579Y-31793098D01*
X87276797Y-31784429D01*
X87294396Y-31779091D01*
X87312697Y-31777288D01*
X87931303Y-31777288D01*
X87949604Y-31779091D01*
X87967203Y-31784429D01*
X87983421Y-31793098D01*
X87997637Y-31804764D01*
X88009303Y-31818980D01*
X88017972Y-31835198D01*
X88023310Y-31852797D01*
X88025113Y-31871098D01*
X88025113Y-32049187D01*
X88023310Y-32067488D01*
X88017972Y-32085087D01*
X88009303Y-32101305D01*
X87997637Y-32115521D01*
X87919922Y-32193236D01*
X87905706Y-32204902D01*
X87889488Y-32213571D01*
X87871889Y-32218909D01*
X87853588Y-32220712D01*
X87390412Y-32220712D01*
X87372111Y-32218909D01*
X87354512Y-32213571D01*
X87338294Y-32204902D01*
X87324078Y-32193236D01*
X87246363Y-32115521D01*
X87234697Y-32101305D01*
X87226028Y-32085087D01*
X87220690Y-32067488D01*
X87218887Y-32049187D01*
X87218887Y-31871098D01*
X87220690Y-31852797D01*
G37*
G36*
X86220690Y-31852797D02*
G01*
X86226028Y-31835198D01*
X86234697Y-31818980D01*
X86246363Y-31804764D01*
X86260579Y-31793098D01*
X86276797Y-31784429D01*
X86294396Y-31779091D01*
X86312697Y-31777288D01*
X86931303Y-31777288D01*
X86949604Y-31779091D01*
X86967203Y-31784429D01*
X86983421Y-31793098D01*
X86997637Y-31804764D01*
X87009303Y-31818980D01*
X87017972Y-31835198D01*
X87023310Y-31852797D01*
X87025113Y-31871098D01*
X87025113Y-32049187D01*
X87023310Y-32067488D01*
X87017972Y-32085087D01*
X87009303Y-32101305D01*
X86997637Y-32115521D01*
X86919922Y-32193236D01*
X86905706Y-32204902D01*
X86889488Y-32213571D01*
X86871889Y-32218909D01*
X86853588Y-32220712D01*
X86390412Y-32220712D01*
X86372111Y-32218909D01*
X86354512Y-32213571D01*
X86338294Y-32204902D01*
X86324078Y-32193236D01*
X86246363Y-32115521D01*
X86234697Y-32101305D01*
X86226028Y-32085087D01*
X86220690Y-32067488D01*
X86218887Y-32049187D01*
X86218887Y-31871098D01*
X86220690Y-31852797D01*
G37*
G36*
X87220690Y-34480512D02*
G01*
X87226028Y-34462913D01*
X87234697Y-34446695D01*
X87246363Y-34432479D01*
X87324078Y-34354764D01*
X87338294Y-34343098D01*
X87354512Y-34334429D01*
X87372111Y-34329091D01*
X87390412Y-34327288D01*
X87853588Y-34327288D01*
X87871889Y-34329091D01*
X87889488Y-34334429D01*
X87905706Y-34343098D01*
X87919922Y-34354764D01*
X87997637Y-34432479D01*
X88009303Y-34446695D01*
X88017972Y-34462913D01*
X88023310Y-34480512D01*
X88025113Y-34498813D01*
X88025113Y-34676902D01*
X88023310Y-34695203D01*
X88017972Y-34712802D01*
X88009303Y-34729020D01*
X87997637Y-34743236D01*
X87983421Y-34754902D01*
X87967203Y-34763571D01*
X87949604Y-34768909D01*
X87931303Y-34770712D01*
X87312697Y-34770712D01*
X87294396Y-34768909D01*
X87276797Y-34763571D01*
X87260579Y-34754902D01*
X87246363Y-34743236D01*
X87234697Y-34729020D01*
X87226028Y-34712802D01*
X87220690Y-34695203D01*
X87218887Y-34676902D01*
X87218887Y-34498813D01*
X87220690Y-34480512D01*
G37*
G36*
X86220690Y-34480512D02*
G01*
X86226028Y-34462913D01*
X86234697Y-34446695D01*
X86246363Y-34432479D01*
X86324078Y-34354764D01*
X86338294Y-34343098D01*
X86354512Y-34334429D01*
X86372111Y-34329091D01*
X86390412Y-34327288D01*
X86853588Y-34327288D01*
X86871889Y-34329091D01*
X86889488Y-34334429D01*
X86905706Y-34343098D01*
X86919922Y-34354764D01*
X86997637Y-34432479D01*
X87009303Y-34446695D01*
X87017972Y-34462913D01*
X87023310Y-34480512D01*
X87025113Y-34498813D01*
X87025113Y-34676902D01*
X87023310Y-34695203D01*
X87017972Y-34712802D01*
X87009303Y-34729020D01*
X86997637Y-34743236D01*
X86983421Y-34754902D01*
X86967203Y-34763571D01*
X86949604Y-34768909D01*
X86931303Y-34770712D01*
X86312697Y-34770712D01*
X86294396Y-34768909D01*
X86276797Y-34763571D01*
X86260579Y-34754902D01*
X86246363Y-34743236D01*
X86234697Y-34729020D01*
X86226028Y-34712802D01*
X86220690Y-34695203D01*
X86218887Y-34676902D01*
X86218887Y-34498813D01*
X86220690Y-34480512D01*
G37*
G36*
G01*
X87823557Y-33177113D02*
X87420443Y-33177113D01*
G75*
G02*
X87218887Y-32975557I0J201556D01*
G01*
X87218887Y-32572443D01*
G75*
G02*
X87420443Y-32370887I201556J0D01*
G01*
X87823557Y-32370887D01*
G75*
G02*
X88025113Y-32572443I0J-201556D01*
G01*
X88025113Y-32975557D01*
G75*
G02*
X87823557Y-33177113I-201556J0D01*
G01*
G37*
G36*
G01*
X86823557Y-33177113D02*
X86420443Y-33177113D01*
G75*
G02*
X86218887Y-32975557I0J201556D01*
G01*
X86218887Y-32572443D01*
G75*
G02*
X86420443Y-32370887I201556J0D01*
G01*
X86823557Y-32370887D01*
G75*
G02*
X87025113Y-32572443I0J-201556D01*
G01*
X87025113Y-32975557D01*
G75*
G02*
X86823557Y-33177113I-201556J0D01*
G01*
G37*
G36*
G01*
X87823557Y-34177113D02*
X87420443Y-34177113D01*
G75*
G02*
X87218887Y-33975557I0J201556D01*
G01*
X87218887Y-33572443D01*
G75*
G02*
X87420443Y-33370887I201556J0D01*
G01*
X87823557Y-33370887D01*
G75*
G02*
X88025113Y-33572443I0J-201556D01*
G01*
X88025113Y-33975557D01*
G75*
G02*
X87823557Y-34177113I-201556J0D01*
G01*
G37*
G36*
G01*
X86823557Y-34177113D02*
X86420443Y-34177113D01*
G75*
G02*
X86218887Y-33975557I0J201556D01*
G01*
X86218887Y-33572443D01*
G75*
G02*
X86420443Y-33370887I201556J0D01*
G01*
X86823557Y-33370887D01*
G75*
G02*
X87025113Y-33572443I0J-201556D01*
G01*
X87025113Y-33975557D01*
G75*
G02*
X86823557Y-34177113I-201556J0D01*
G01*
G37*
G36*
G01*
X85059500Y-35149000D02*
X84309500Y-35149000D01*
G75*
G02*
X84247000Y-35086500I0J62500D01*
G01*
X84247000Y-34961500D01*
G75*
G02*
X84309500Y-34899000I62500J0D01*
G01*
X85059500Y-34899000D01*
G75*
G02*
X85122000Y-34961500I0J-62500D01*
G01*
X85122000Y-35086500D01*
G75*
G02*
X85059500Y-35149000I-62500J0D01*
G01*
G37*
G36*
G01*
X85059500Y-34649000D02*
X84309500Y-34649000D01*
G75*
G02*
X84247000Y-34586500I0J62500D01*
G01*
X84247000Y-34461500D01*
G75*
G02*
X84309500Y-34399000I62500J0D01*
G01*
X85059500Y-34399000D01*
G75*
G02*
X85122000Y-34461500I0J-62500D01*
G01*
X85122000Y-34586500D01*
G75*
G02*
X85059500Y-34649000I-62500J0D01*
G01*
G37*
G36*
G01*
X85059500Y-34149000D02*
X84309500Y-34149000D01*
G75*
G02*
X84247000Y-34086500I0J62500D01*
G01*
X84247000Y-33961500D01*
G75*
G02*
X84309500Y-33899000I62500J0D01*
G01*
X85059500Y-33899000D01*
G75*
G02*
X85122000Y-33961500I0J-62500D01*
G01*
X85122000Y-34086500D01*
G75*
G02*
X85059500Y-34149000I-62500J0D01*
G01*
G37*
G36*
G01*
X85059500Y-33649000D02*
X84309500Y-33649000D01*
G75*
G02*
X84247000Y-33586500I0J62500D01*
G01*
X84247000Y-33461500D01*
G75*
G02*
X84309500Y-33399000I62500J0D01*
G01*
X85059500Y-33399000D01*
G75*
G02*
X85122000Y-33461500I0J-62500D01*
G01*
X85122000Y-33586500D01*
G75*
G02*
X85059500Y-33649000I-62500J0D01*
G01*
G37*
G36*
G01*
X85059500Y-33149000D02*
X84309500Y-33149000D01*
G75*
G02*
X84247000Y-33086500I0J62500D01*
G01*
X84247000Y-32961500D01*
G75*
G02*
X84309500Y-32899000I62500J0D01*
G01*
X85059500Y-32899000D01*
G75*
G02*
X85122000Y-32961500I0J-62500D01*
G01*
X85122000Y-33086500D01*
G75*
G02*
X85059500Y-33149000I-62500J0D01*
G01*
G37*
G36*
G01*
X85059500Y-32649000D02*
X84309500Y-32649000D01*
G75*
G02*
X84247000Y-32586500I0J62500D01*
G01*
X84247000Y-32461500D01*
G75*
G02*
X84309500Y-32399000I62500J0D01*
G01*
X85059500Y-32399000D01*
G75*
G02*
X85122000Y-32461500I0J-62500D01*
G01*
X85122000Y-32586500D01*
G75*
G02*
X85059500Y-32649000I-62500J0D01*
G01*
G37*
G36*
G01*
X85059500Y-32149000D02*
X84309500Y-32149000D01*
G75*
G02*
X84247000Y-32086500I0J62500D01*
G01*
X84247000Y-31961500D01*
G75*
G02*
X84309500Y-31899000I62500J0D01*
G01*
X85059500Y-31899000D01*
G75*
G02*
X85122000Y-31961500I0J-62500D01*
G01*
X85122000Y-32086500D01*
G75*
G02*
X85059500Y-32149000I-62500J0D01*
G01*
G37*
G36*
G01*
X85059500Y-31649000D02*
X84309500Y-31649000D01*
G75*
G02*
X84247000Y-31586500I0J62500D01*
G01*
X84247000Y-31461500D01*
G75*
G02*
X84309500Y-31399000I62500J0D01*
G01*
X85059500Y-31399000D01*
G75*
G02*
X85122000Y-31461500I0J-62500D01*
G01*
X85122000Y-31586500D01*
G75*
G02*
X85059500Y-31649000I-62500J0D01*
G01*
G37*
G36*
G01*
X85434500Y-31274000D02*
X85309500Y-31274000D01*
G75*
G02*
X85247000Y-31211500I0J62500D01*
G01*
X85247000Y-30461500D01*
G75*
G02*
X85309500Y-30399000I62500J0D01*
G01*
X85434500Y-30399000D01*
G75*
G02*
X85497000Y-30461500I0J-62500D01*
G01*
X85497000Y-31211500D01*
G75*
G02*
X85434500Y-31274000I-62500J0D01*
G01*
G37*
G36*
G01*
X85934500Y-31274000D02*
X85809500Y-31274000D01*
G75*
G02*
X85747000Y-31211500I0J62500D01*
G01*
X85747000Y-30461500D01*
G75*
G02*
X85809500Y-30399000I62500J0D01*
G01*
X85934500Y-30399000D01*
G75*
G02*
X85997000Y-30461500I0J-62500D01*
G01*
X85997000Y-31211500D01*
G75*
G02*
X85934500Y-31274000I-62500J0D01*
G01*
G37*
G36*
G01*
X86434500Y-31274000D02*
X86309500Y-31274000D01*
G75*
G02*
X86247000Y-31211500I0J62500D01*
G01*
X86247000Y-30461500D01*
G75*
G02*
X86309500Y-30399000I62500J0D01*
G01*
X86434500Y-30399000D01*
G75*
G02*
X86497000Y-30461500I0J-62500D01*
G01*
X86497000Y-31211500D01*
G75*
G02*
X86434500Y-31274000I-62500J0D01*
G01*
G37*
G36*
G01*
X86934500Y-31274000D02*
X86809500Y-31274000D01*
G75*
G02*
X86747000Y-31211500I0J62500D01*
G01*
X86747000Y-30461500D01*
G75*
G02*
X86809500Y-30399000I62500J0D01*
G01*
X86934500Y-30399000D01*
G75*
G02*
X86997000Y-30461500I0J-62500D01*
G01*
X86997000Y-31211500D01*
G75*
G02*
X86934500Y-31274000I-62500J0D01*
G01*
G37*
G36*
G01*
X87434500Y-31274000D02*
X87309500Y-31274000D01*
G75*
G02*
X87247000Y-31211500I0J62500D01*
G01*
X87247000Y-30461500D01*
G75*
G02*
X87309500Y-30399000I62500J0D01*
G01*
X87434500Y-30399000D01*
G75*
G02*
X87497000Y-30461500I0J-62500D01*
G01*
X87497000Y-31211500D01*
G75*
G02*
X87434500Y-31274000I-62500J0D01*
G01*
G37*
G36*
G01*
X87934500Y-31274000D02*
X87809500Y-31274000D01*
G75*
G02*
X87747000Y-31211500I0J62500D01*
G01*
X87747000Y-30461500D01*
G75*
G02*
X87809500Y-30399000I62500J0D01*
G01*
X87934500Y-30399000D01*
G75*
G02*
X87997000Y-30461500I0J-62500D01*
G01*
X87997000Y-31211500D01*
G75*
G02*
X87934500Y-31274000I-62500J0D01*
G01*
G37*
G36*
G01*
X88434500Y-31274000D02*
X88309500Y-31274000D01*
G75*
G02*
X88247000Y-31211500I0J62500D01*
G01*
X88247000Y-30461500D01*
G75*
G02*
X88309500Y-30399000I62500J0D01*
G01*
X88434500Y-30399000D01*
G75*
G02*
X88497000Y-30461500I0J-62500D01*
G01*
X88497000Y-31211500D01*
G75*
G02*
X88434500Y-31274000I-62500J0D01*
G01*
G37*
G36*
G01*
X88934500Y-31274000D02*
X88809500Y-31274000D01*
G75*
G02*
X88747000Y-31211500I0J62500D01*
G01*
X88747000Y-30461500D01*
G75*
G02*
X88809500Y-30399000I62500J0D01*
G01*
X88934500Y-30399000D01*
G75*
G02*
X88997000Y-30461500I0J-62500D01*
G01*
X88997000Y-31211500D01*
G75*
G02*
X88934500Y-31274000I-62500J0D01*
G01*
G37*
G36*
G01*
X89934500Y-31649000D02*
X89184500Y-31649000D01*
G75*
G02*
X89122000Y-31586500I0J62500D01*
G01*
X89122000Y-31461500D01*
G75*
G02*
X89184500Y-31399000I62500J0D01*
G01*
X89934500Y-31399000D01*
G75*
G02*
X89997000Y-31461500I0J-62500D01*
G01*
X89997000Y-31586500D01*
G75*
G02*
X89934500Y-31649000I-62500J0D01*
G01*
G37*
G36*
G01*
X89934500Y-32149000D02*
X89184500Y-32149000D01*
G75*
G02*
X89122000Y-32086500I0J62500D01*
G01*
X89122000Y-31961500D01*
G75*
G02*
X89184500Y-31899000I62500J0D01*
G01*
X89934500Y-31899000D01*
G75*
G02*
X89997000Y-31961500I0J-62500D01*
G01*
X89997000Y-32086500D01*
G75*
G02*
X89934500Y-32149000I-62500J0D01*
G01*
G37*
G36*
G01*
X89934500Y-32649000D02*
X89184500Y-32649000D01*
G75*
G02*
X89122000Y-32586500I0J62500D01*
G01*
X89122000Y-32461500D01*
G75*
G02*
X89184500Y-32399000I62500J0D01*
G01*
X89934500Y-32399000D01*
G75*
G02*
X89997000Y-32461500I0J-62500D01*
G01*
X89997000Y-32586500D01*
G75*
G02*
X89934500Y-32649000I-62500J0D01*
G01*
G37*
G36*
G01*
X89934500Y-33149000D02*
X89184500Y-33149000D01*
G75*
G02*
X89122000Y-33086500I0J62500D01*
G01*
X89122000Y-32961500D01*
G75*
G02*
X89184500Y-32899000I62500J0D01*
G01*
X89934500Y-32899000D01*
G75*
G02*
X89997000Y-32961500I0J-62500D01*
G01*
X89997000Y-33086500D01*
G75*
G02*
X89934500Y-33149000I-62500J0D01*
G01*
G37*
G36*
G01*
X89934500Y-33649000D02*
X89184500Y-33649000D01*
G75*
G02*
X89122000Y-33586500I0J62500D01*
G01*
X89122000Y-33461500D01*
G75*
G02*
X89184500Y-33399000I62500J0D01*
G01*
X89934500Y-33399000D01*
G75*
G02*
X89997000Y-33461500I0J-62500D01*
G01*
X89997000Y-33586500D01*
G75*
G02*
X89934500Y-33649000I-62500J0D01*
G01*
G37*
G36*
G01*
X89934500Y-34149000D02*
X89184500Y-34149000D01*
G75*
G02*
X89122000Y-34086500I0J62500D01*
G01*
X89122000Y-33961500D01*
G75*
G02*
X89184500Y-33899000I62500J0D01*
G01*
X89934500Y-33899000D01*
G75*
G02*
X89997000Y-33961500I0J-62500D01*
G01*
X89997000Y-34086500D01*
G75*
G02*
X89934500Y-34149000I-62500J0D01*
G01*
G37*
G36*
G01*
X89934500Y-34649000D02*
X89184500Y-34649000D01*
G75*
G02*
X89122000Y-34586500I0J62500D01*
G01*
X89122000Y-34461500D01*
G75*
G02*
X89184500Y-34399000I62500J0D01*
G01*
X89934500Y-34399000D01*
G75*
G02*
X89997000Y-34461500I0J-62500D01*
G01*
X89997000Y-34586500D01*
G75*
G02*
X89934500Y-34649000I-62500J0D01*
G01*
G37*
G36*
G01*
X89934500Y-35149000D02*
X89184500Y-35149000D01*
G75*
G02*
X89122000Y-35086500I0J62500D01*
G01*
X89122000Y-34961500D01*
G75*
G02*
X89184500Y-34899000I62500J0D01*
G01*
X89934500Y-34899000D01*
G75*
G02*
X89997000Y-34961500I0J-62500D01*
G01*
X89997000Y-35086500D01*
G75*
G02*
X89934500Y-35149000I-62500J0D01*
G01*
G37*
G36*
G01*
X88934500Y-36149000D02*
X88809500Y-36149000D01*
G75*
G02*
X88747000Y-36086500I0J62500D01*
G01*
X88747000Y-35336500D01*
G75*
G02*
X88809500Y-35274000I62500J0D01*
G01*
X88934500Y-35274000D01*
G75*
G02*
X88997000Y-35336500I0J-62500D01*
G01*
X88997000Y-36086500D01*
G75*
G02*
X88934500Y-36149000I-62500J0D01*
G01*
G37*
G36*
G01*
X88434500Y-36149000D02*
X88309500Y-36149000D01*
G75*
G02*
X88247000Y-36086500I0J62500D01*
G01*
X88247000Y-35336500D01*
G75*
G02*
X88309500Y-35274000I62500J0D01*
G01*
X88434500Y-35274000D01*
G75*
G02*
X88497000Y-35336500I0J-62500D01*
G01*
X88497000Y-36086500D01*
G75*
G02*
X88434500Y-36149000I-62500J0D01*
G01*
G37*
G36*
G01*
X87934500Y-36149000D02*
X87809500Y-36149000D01*
G75*
G02*
X87747000Y-36086500I0J62500D01*
G01*
X87747000Y-35336500D01*
G75*
G02*
X87809500Y-35274000I62500J0D01*
G01*
X87934500Y-35274000D01*
G75*
G02*
X87997000Y-35336500I0J-62500D01*
G01*
X87997000Y-36086500D01*
G75*
G02*
X87934500Y-36149000I-62500J0D01*
G01*
G37*
G36*
G01*
X87434500Y-36149000D02*
X87309500Y-36149000D01*
G75*
G02*
X87247000Y-36086500I0J62500D01*
G01*
X87247000Y-35336500D01*
G75*
G02*
X87309500Y-35274000I62500J0D01*
G01*
X87434500Y-35274000D01*
G75*
G02*
X87497000Y-35336500I0J-62500D01*
G01*
X87497000Y-36086500D01*
G75*
G02*
X87434500Y-36149000I-62500J0D01*
G01*
G37*
G36*
G01*
X86934500Y-36149000D02*
X86809500Y-36149000D01*
G75*
G02*
X86747000Y-36086500I0J62500D01*
G01*
X86747000Y-35336500D01*
G75*
G02*
X86809500Y-35274000I62500J0D01*
G01*
X86934500Y-35274000D01*
G75*
G02*
X86997000Y-35336500I0J-62500D01*
G01*
X86997000Y-36086500D01*
G75*
G02*
X86934500Y-36149000I-62500J0D01*
G01*
G37*
G36*
G01*
X86434500Y-36149000D02*
X86309500Y-36149000D01*
G75*
G02*
X86247000Y-36086500I0J62500D01*
G01*
X86247000Y-35336500D01*
G75*
G02*
X86309500Y-35274000I62500J0D01*
G01*
X86434500Y-35274000D01*
G75*
G02*
X86497000Y-35336500I0J-62500D01*
G01*
X86497000Y-36086500D01*
G75*
G02*
X86434500Y-36149000I-62500J0D01*
G01*
G37*
G36*
G01*
X85934500Y-36149000D02*
X85809500Y-36149000D01*
G75*
G02*
X85747000Y-36086500I0J62500D01*
G01*
X85747000Y-35336500D01*
G75*
G02*
X85809500Y-35274000I62500J0D01*
G01*
X85934500Y-35274000D01*
G75*
G02*
X85997000Y-35336500I0J-62500D01*
G01*
X85997000Y-36086500D01*
G75*
G02*
X85934500Y-36149000I-62500J0D01*
G01*
G37*
G36*
G01*
X85434500Y-36149000D02*
X85309500Y-36149000D01*
G75*
G02*
X85247000Y-36086500I0J62500D01*
G01*
X85247000Y-35336500D01*
G75*
G02*
X85309500Y-35274000I62500J0D01*
G01*
X85434500Y-35274000D01*
G75*
G02*
X85497000Y-35336500I0J-62500D01*
G01*
X85497000Y-36086500D01*
G75*
G02*
X85434500Y-36149000I-62500J0D01*
G01*
G37*
%TD*%
D13*
%TO.C,U2*%
X82423000Y-31496000D03*
X82423000Y-32796000D03*
X80523000Y-32146000D03*
X80523000Y-32796000D03*
X80523000Y-31496000D03*
%TD*%
D12*
%TO.C,U1*%
G36*
X69455000Y-29359500D02*
G01*
X72580000Y-29359500D01*
X72580000Y-29776000D01*
X74055000Y-29776000D01*
X74055000Y-30676000D01*
X72580000Y-30676000D01*
X72580000Y-31092500D01*
X69455000Y-31092500D01*
X69455000Y-29359500D01*
G37*
D14*
X73405000Y-28726000D03*
X73405000Y-31726000D03*
%TD*%
D10*
%TO.C,D1*%
X84394000Y-26194000D03*
X85344000Y-28194000D03*
X83444000Y-28194000D03*
%TD*%
M02*
