%TF.GenerationSoftware,KiCad,Pcbnew,(5.1.6)-1*%
%TF.CreationDate,2020-09-18T11:49:08-05:00*%
%TF.ProjectId,desk_lamp,6465736b-5f6c-4616-9d70-2e6b69636164,rev?*%
%TF.SameCoordinates,Original*%
%TF.FileFunction,Soldermask,Top*%
%TF.FilePolarity,Negative*%
%FSLAX46Y46*%
G04 Gerber Fmt 4.6, Leading zero omitted, Abs format (unit mm)*
G04 Created by KiCad (PCBNEW (5.1.6)-1) date 2020-09-18 11:49:08*
%MOMM*%
%LPD*%
G01*
G04 APERTURE LIST*
%ADD10O,3.701600X1.801600*%
%ADD11R,0.901600X1.001600*%
%ADD12R,3.901600X2.131600*%
%ADD13R,3.201600X3.201600*%
%ADD14R,0.751600X0.501600*%
%ADD15C,0.100000*%
%ADD16R,1.401600X1.001600*%
%ADD17C,2.701600*%
%ADD18R,2.701600X2.701600*%
G04 APERTURE END LIST*
D10*
%TO.C,J3*%
X99448000Y-46126000D03*
X99448000Y-48626000D03*
X99448000Y-51126000D03*
G36*
G01*
X100848400Y-54526800D02*
X98047600Y-54526800D01*
G75*
G02*
X97597200Y-54076400I0J450400D01*
G01*
X97597200Y-53175600D01*
G75*
G02*
X98047600Y-52725200I450400J0D01*
G01*
X100848400Y-52725200D01*
G75*
G02*
X101298800Y-53175600I0J-450400D01*
G01*
X101298800Y-54076400D01*
G75*
G02*
X100848400Y-54526800I-450400J0D01*
G01*
G37*
%TD*%
%TO.C,U3*%
G36*
G01*
X91037600Y-37522200D02*
X91588400Y-37522200D01*
G75*
G02*
X91813800Y-37747600I0J-225400D01*
G01*
X91813800Y-38198400D01*
G75*
G02*
X91588400Y-38423800I-225400J0D01*
G01*
X91037600Y-38423800D01*
G75*
G02*
X90812200Y-38198400I0J225400D01*
G01*
X90812200Y-37747600D01*
G75*
G02*
X91037600Y-37522200I225400J0D01*
G01*
G37*
G36*
G01*
X91037600Y-36072200D02*
X91588400Y-36072200D01*
G75*
G02*
X91813800Y-36297600I0J-225400D01*
G01*
X91813800Y-36748400D01*
G75*
G02*
X91588400Y-36973800I-225400J0D01*
G01*
X91037600Y-36973800D01*
G75*
G02*
X90812200Y-36748400I0J225400D01*
G01*
X90812200Y-36297600D01*
G75*
G02*
X91037600Y-36072200I225400J0D01*
G01*
G37*
G36*
G01*
X92887600Y-37522200D02*
X93438400Y-37522200D01*
G75*
G02*
X93663800Y-37747600I0J-225400D01*
G01*
X93663800Y-38198400D01*
G75*
G02*
X93438400Y-38423800I-225400J0D01*
G01*
X92887600Y-38423800D01*
G75*
G02*
X92662200Y-38198400I0J225400D01*
G01*
X92662200Y-37747600D01*
G75*
G02*
X92887600Y-37522200I225400J0D01*
G01*
G37*
G36*
G01*
X92887600Y-36072200D02*
X93438400Y-36072200D01*
G75*
G02*
X93663800Y-36297600I0J-225400D01*
G01*
X93663800Y-36748400D01*
G75*
G02*
X93438400Y-36973800I-225400J0D01*
G01*
X92887600Y-36973800D01*
G75*
G02*
X92662200Y-36748400I0J225400D01*
G01*
X92662200Y-36297600D01*
G75*
G02*
X92887600Y-36072200I225400J0D01*
G01*
G37*
%TD*%
D11*
%TO.C,Q1*%
X77917000Y-37433000D03*
X76967000Y-35433000D03*
X78867000Y-35433000D03*
%TD*%
D12*
%TO.C,TP8*%
X81940400Y-23520400D03*
%TD*%
%TO.C,TP7*%
X76454000Y-23495000D03*
%TD*%
%TO.C,TP6*%
X70637400Y-23393400D03*
%TD*%
%TO.C,TP5*%
X81661000Y-40259000D03*
%TD*%
%TO.C,TP4*%
X87884000Y-48768000D03*
%TD*%
%TO.C,TP3*%
X87909400Y-53619400D03*
%TD*%
%TO.C,TP2*%
X58928000Y-23368000D03*
%TD*%
%TO.C,TP1*%
X65024000Y-23368000D03*
%TD*%
%TO.C,U5*%
G36*
G01*
X99239200Y-31417400D02*
X99239200Y-31066600D01*
G75*
G02*
X99414600Y-30891200I175400J0D01*
G01*
X101115400Y-30891200D01*
G75*
G02*
X101290800Y-31066600I0J-175400D01*
G01*
X101290800Y-31417400D01*
G75*
G02*
X101115400Y-31592800I-175400J0D01*
G01*
X99414600Y-31592800D01*
G75*
G02*
X99239200Y-31417400I0J175400D01*
G01*
G37*
G36*
G01*
X99239200Y-32687400D02*
X99239200Y-32336600D01*
G75*
G02*
X99414600Y-32161200I175400J0D01*
G01*
X101115400Y-32161200D01*
G75*
G02*
X101290800Y-32336600I0J-175400D01*
G01*
X101290800Y-32687400D01*
G75*
G02*
X101115400Y-32862800I-175400J0D01*
G01*
X99414600Y-32862800D01*
G75*
G02*
X99239200Y-32687400I0J175400D01*
G01*
G37*
G36*
G01*
X99239200Y-33957400D02*
X99239200Y-33606600D01*
G75*
G02*
X99414600Y-33431200I175400J0D01*
G01*
X101115400Y-33431200D01*
G75*
G02*
X101290800Y-33606600I0J-175400D01*
G01*
X101290800Y-33957400D01*
G75*
G02*
X101115400Y-34132800I-175400J0D01*
G01*
X99414600Y-34132800D01*
G75*
G02*
X99239200Y-33957400I0J175400D01*
G01*
G37*
G36*
G01*
X99239200Y-35227400D02*
X99239200Y-34876600D01*
G75*
G02*
X99414600Y-34701200I175400J0D01*
G01*
X101115400Y-34701200D01*
G75*
G02*
X101290800Y-34876600I0J-175400D01*
G01*
X101290800Y-35227400D01*
G75*
G02*
X101115400Y-35402800I-175400J0D01*
G01*
X99414600Y-35402800D01*
G75*
G02*
X99239200Y-35227400I0J175400D01*
G01*
G37*
G36*
G01*
X94289200Y-35227400D02*
X94289200Y-34876600D01*
G75*
G02*
X94464600Y-34701200I175400J0D01*
G01*
X96165400Y-34701200D01*
G75*
G02*
X96340800Y-34876600I0J-175400D01*
G01*
X96340800Y-35227400D01*
G75*
G02*
X96165400Y-35402800I-175400J0D01*
G01*
X94464600Y-35402800D01*
G75*
G02*
X94289200Y-35227400I0J175400D01*
G01*
G37*
G36*
G01*
X94289200Y-33957400D02*
X94289200Y-33606600D01*
G75*
G02*
X94464600Y-33431200I175400J0D01*
G01*
X96165400Y-33431200D01*
G75*
G02*
X96340800Y-33606600I0J-175400D01*
G01*
X96340800Y-33957400D01*
G75*
G02*
X96165400Y-34132800I-175400J0D01*
G01*
X94464600Y-34132800D01*
G75*
G02*
X94289200Y-33957400I0J175400D01*
G01*
G37*
G36*
G01*
X94289200Y-32687400D02*
X94289200Y-32336600D01*
G75*
G02*
X94464600Y-32161200I175400J0D01*
G01*
X96165400Y-32161200D01*
G75*
G02*
X96340800Y-32336600I0J-175400D01*
G01*
X96340800Y-32687400D01*
G75*
G02*
X96165400Y-32862800I-175400J0D01*
G01*
X94464600Y-32862800D01*
G75*
G02*
X94289200Y-32687400I0J175400D01*
G01*
G37*
G36*
G01*
X94289200Y-31417400D02*
X94289200Y-31066600D01*
G75*
G02*
X94464600Y-30891200I175400J0D01*
G01*
X96165400Y-30891200D01*
G75*
G02*
X96340800Y-31066600I0J-175400D01*
G01*
X96340800Y-31417400D01*
G75*
G02*
X96165400Y-31592800I-175400J0D01*
G01*
X94464600Y-31592800D01*
G75*
G02*
X94289200Y-31417400I0J175400D01*
G01*
G37*
%TD*%
D13*
%TO.C,U4*%
X87122000Y-33274000D03*
G36*
G01*
X85084900Y-35199800D02*
X84284100Y-35199800D01*
G75*
G02*
X84196200Y-35111900I0J87900D01*
G01*
X84196200Y-34936100D01*
G75*
G02*
X84284100Y-34848200I87900J0D01*
G01*
X85084900Y-34848200D01*
G75*
G02*
X85172800Y-34936100I0J-87900D01*
G01*
X85172800Y-35111900D01*
G75*
G02*
X85084900Y-35199800I-87900J0D01*
G01*
G37*
G36*
G01*
X85084900Y-34699800D02*
X84284100Y-34699800D01*
G75*
G02*
X84196200Y-34611900I0J87900D01*
G01*
X84196200Y-34436100D01*
G75*
G02*
X84284100Y-34348200I87900J0D01*
G01*
X85084900Y-34348200D01*
G75*
G02*
X85172800Y-34436100I0J-87900D01*
G01*
X85172800Y-34611900D01*
G75*
G02*
X85084900Y-34699800I-87900J0D01*
G01*
G37*
G36*
G01*
X85084900Y-34199800D02*
X84284100Y-34199800D01*
G75*
G02*
X84196200Y-34111900I0J87900D01*
G01*
X84196200Y-33936100D01*
G75*
G02*
X84284100Y-33848200I87900J0D01*
G01*
X85084900Y-33848200D01*
G75*
G02*
X85172800Y-33936100I0J-87900D01*
G01*
X85172800Y-34111900D01*
G75*
G02*
X85084900Y-34199800I-87900J0D01*
G01*
G37*
G36*
G01*
X85084900Y-33699800D02*
X84284100Y-33699800D01*
G75*
G02*
X84196200Y-33611900I0J87900D01*
G01*
X84196200Y-33436100D01*
G75*
G02*
X84284100Y-33348200I87900J0D01*
G01*
X85084900Y-33348200D01*
G75*
G02*
X85172800Y-33436100I0J-87900D01*
G01*
X85172800Y-33611900D01*
G75*
G02*
X85084900Y-33699800I-87900J0D01*
G01*
G37*
G36*
G01*
X85084900Y-33199800D02*
X84284100Y-33199800D01*
G75*
G02*
X84196200Y-33111900I0J87900D01*
G01*
X84196200Y-32936100D01*
G75*
G02*
X84284100Y-32848200I87900J0D01*
G01*
X85084900Y-32848200D01*
G75*
G02*
X85172800Y-32936100I0J-87900D01*
G01*
X85172800Y-33111900D01*
G75*
G02*
X85084900Y-33199800I-87900J0D01*
G01*
G37*
G36*
G01*
X85084900Y-32699800D02*
X84284100Y-32699800D01*
G75*
G02*
X84196200Y-32611900I0J87900D01*
G01*
X84196200Y-32436100D01*
G75*
G02*
X84284100Y-32348200I87900J0D01*
G01*
X85084900Y-32348200D01*
G75*
G02*
X85172800Y-32436100I0J-87900D01*
G01*
X85172800Y-32611900D01*
G75*
G02*
X85084900Y-32699800I-87900J0D01*
G01*
G37*
G36*
G01*
X85084900Y-32199800D02*
X84284100Y-32199800D01*
G75*
G02*
X84196200Y-32111900I0J87900D01*
G01*
X84196200Y-31936100D01*
G75*
G02*
X84284100Y-31848200I87900J0D01*
G01*
X85084900Y-31848200D01*
G75*
G02*
X85172800Y-31936100I0J-87900D01*
G01*
X85172800Y-32111900D01*
G75*
G02*
X85084900Y-32199800I-87900J0D01*
G01*
G37*
G36*
G01*
X85084900Y-31699800D02*
X84284100Y-31699800D01*
G75*
G02*
X84196200Y-31611900I0J87900D01*
G01*
X84196200Y-31436100D01*
G75*
G02*
X84284100Y-31348200I87900J0D01*
G01*
X85084900Y-31348200D01*
G75*
G02*
X85172800Y-31436100I0J-87900D01*
G01*
X85172800Y-31611900D01*
G75*
G02*
X85084900Y-31699800I-87900J0D01*
G01*
G37*
G36*
G01*
X85459900Y-31324800D02*
X85284100Y-31324800D01*
G75*
G02*
X85196200Y-31236900I0J87900D01*
G01*
X85196200Y-30436100D01*
G75*
G02*
X85284100Y-30348200I87900J0D01*
G01*
X85459900Y-30348200D01*
G75*
G02*
X85547800Y-30436100I0J-87900D01*
G01*
X85547800Y-31236900D01*
G75*
G02*
X85459900Y-31324800I-87900J0D01*
G01*
G37*
G36*
G01*
X85959900Y-31324800D02*
X85784100Y-31324800D01*
G75*
G02*
X85696200Y-31236900I0J87900D01*
G01*
X85696200Y-30436100D01*
G75*
G02*
X85784100Y-30348200I87900J0D01*
G01*
X85959900Y-30348200D01*
G75*
G02*
X86047800Y-30436100I0J-87900D01*
G01*
X86047800Y-31236900D01*
G75*
G02*
X85959900Y-31324800I-87900J0D01*
G01*
G37*
G36*
G01*
X86459900Y-31324800D02*
X86284100Y-31324800D01*
G75*
G02*
X86196200Y-31236900I0J87900D01*
G01*
X86196200Y-30436100D01*
G75*
G02*
X86284100Y-30348200I87900J0D01*
G01*
X86459900Y-30348200D01*
G75*
G02*
X86547800Y-30436100I0J-87900D01*
G01*
X86547800Y-31236900D01*
G75*
G02*
X86459900Y-31324800I-87900J0D01*
G01*
G37*
G36*
G01*
X86959900Y-31324800D02*
X86784100Y-31324800D01*
G75*
G02*
X86696200Y-31236900I0J87900D01*
G01*
X86696200Y-30436100D01*
G75*
G02*
X86784100Y-30348200I87900J0D01*
G01*
X86959900Y-30348200D01*
G75*
G02*
X87047800Y-30436100I0J-87900D01*
G01*
X87047800Y-31236900D01*
G75*
G02*
X86959900Y-31324800I-87900J0D01*
G01*
G37*
G36*
G01*
X87459900Y-31324800D02*
X87284100Y-31324800D01*
G75*
G02*
X87196200Y-31236900I0J87900D01*
G01*
X87196200Y-30436100D01*
G75*
G02*
X87284100Y-30348200I87900J0D01*
G01*
X87459900Y-30348200D01*
G75*
G02*
X87547800Y-30436100I0J-87900D01*
G01*
X87547800Y-31236900D01*
G75*
G02*
X87459900Y-31324800I-87900J0D01*
G01*
G37*
G36*
G01*
X87959900Y-31324800D02*
X87784100Y-31324800D01*
G75*
G02*
X87696200Y-31236900I0J87900D01*
G01*
X87696200Y-30436100D01*
G75*
G02*
X87784100Y-30348200I87900J0D01*
G01*
X87959900Y-30348200D01*
G75*
G02*
X88047800Y-30436100I0J-87900D01*
G01*
X88047800Y-31236900D01*
G75*
G02*
X87959900Y-31324800I-87900J0D01*
G01*
G37*
G36*
G01*
X88459900Y-31324800D02*
X88284100Y-31324800D01*
G75*
G02*
X88196200Y-31236900I0J87900D01*
G01*
X88196200Y-30436100D01*
G75*
G02*
X88284100Y-30348200I87900J0D01*
G01*
X88459900Y-30348200D01*
G75*
G02*
X88547800Y-30436100I0J-87900D01*
G01*
X88547800Y-31236900D01*
G75*
G02*
X88459900Y-31324800I-87900J0D01*
G01*
G37*
G36*
G01*
X88959900Y-31324800D02*
X88784100Y-31324800D01*
G75*
G02*
X88696200Y-31236900I0J87900D01*
G01*
X88696200Y-30436100D01*
G75*
G02*
X88784100Y-30348200I87900J0D01*
G01*
X88959900Y-30348200D01*
G75*
G02*
X89047800Y-30436100I0J-87900D01*
G01*
X89047800Y-31236900D01*
G75*
G02*
X88959900Y-31324800I-87900J0D01*
G01*
G37*
G36*
G01*
X89959900Y-31699800D02*
X89159100Y-31699800D01*
G75*
G02*
X89071200Y-31611900I0J87900D01*
G01*
X89071200Y-31436100D01*
G75*
G02*
X89159100Y-31348200I87900J0D01*
G01*
X89959900Y-31348200D01*
G75*
G02*
X90047800Y-31436100I0J-87900D01*
G01*
X90047800Y-31611900D01*
G75*
G02*
X89959900Y-31699800I-87900J0D01*
G01*
G37*
G36*
G01*
X89959900Y-32199800D02*
X89159100Y-32199800D01*
G75*
G02*
X89071200Y-32111900I0J87900D01*
G01*
X89071200Y-31936100D01*
G75*
G02*
X89159100Y-31848200I87900J0D01*
G01*
X89959900Y-31848200D01*
G75*
G02*
X90047800Y-31936100I0J-87900D01*
G01*
X90047800Y-32111900D01*
G75*
G02*
X89959900Y-32199800I-87900J0D01*
G01*
G37*
G36*
G01*
X89959900Y-32699800D02*
X89159100Y-32699800D01*
G75*
G02*
X89071200Y-32611900I0J87900D01*
G01*
X89071200Y-32436100D01*
G75*
G02*
X89159100Y-32348200I87900J0D01*
G01*
X89959900Y-32348200D01*
G75*
G02*
X90047800Y-32436100I0J-87900D01*
G01*
X90047800Y-32611900D01*
G75*
G02*
X89959900Y-32699800I-87900J0D01*
G01*
G37*
G36*
G01*
X89959900Y-33199800D02*
X89159100Y-33199800D01*
G75*
G02*
X89071200Y-33111900I0J87900D01*
G01*
X89071200Y-32936100D01*
G75*
G02*
X89159100Y-32848200I87900J0D01*
G01*
X89959900Y-32848200D01*
G75*
G02*
X90047800Y-32936100I0J-87900D01*
G01*
X90047800Y-33111900D01*
G75*
G02*
X89959900Y-33199800I-87900J0D01*
G01*
G37*
G36*
G01*
X89959900Y-33699800D02*
X89159100Y-33699800D01*
G75*
G02*
X89071200Y-33611900I0J87900D01*
G01*
X89071200Y-33436100D01*
G75*
G02*
X89159100Y-33348200I87900J0D01*
G01*
X89959900Y-33348200D01*
G75*
G02*
X90047800Y-33436100I0J-87900D01*
G01*
X90047800Y-33611900D01*
G75*
G02*
X89959900Y-33699800I-87900J0D01*
G01*
G37*
G36*
G01*
X89959900Y-34199800D02*
X89159100Y-34199800D01*
G75*
G02*
X89071200Y-34111900I0J87900D01*
G01*
X89071200Y-33936100D01*
G75*
G02*
X89159100Y-33848200I87900J0D01*
G01*
X89959900Y-33848200D01*
G75*
G02*
X90047800Y-33936100I0J-87900D01*
G01*
X90047800Y-34111900D01*
G75*
G02*
X89959900Y-34199800I-87900J0D01*
G01*
G37*
G36*
G01*
X89959900Y-34699800D02*
X89159100Y-34699800D01*
G75*
G02*
X89071200Y-34611900I0J87900D01*
G01*
X89071200Y-34436100D01*
G75*
G02*
X89159100Y-34348200I87900J0D01*
G01*
X89959900Y-34348200D01*
G75*
G02*
X90047800Y-34436100I0J-87900D01*
G01*
X90047800Y-34611900D01*
G75*
G02*
X89959900Y-34699800I-87900J0D01*
G01*
G37*
G36*
G01*
X89959900Y-35199800D02*
X89159100Y-35199800D01*
G75*
G02*
X89071200Y-35111900I0J87900D01*
G01*
X89071200Y-34936100D01*
G75*
G02*
X89159100Y-34848200I87900J0D01*
G01*
X89959900Y-34848200D01*
G75*
G02*
X90047800Y-34936100I0J-87900D01*
G01*
X90047800Y-35111900D01*
G75*
G02*
X89959900Y-35199800I-87900J0D01*
G01*
G37*
G36*
G01*
X88959900Y-36199800D02*
X88784100Y-36199800D01*
G75*
G02*
X88696200Y-36111900I0J87900D01*
G01*
X88696200Y-35311100D01*
G75*
G02*
X88784100Y-35223200I87900J0D01*
G01*
X88959900Y-35223200D01*
G75*
G02*
X89047800Y-35311100I0J-87900D01*
G01*
X89047800Y-36111900D01*
G75*
G02*
X88959900Y-36199800I-87900J0D01*
G01*
G37*
G36*
G01*
X88459900Y-36199800D02*
X88284100Y-36199800D01*
G75*
G02*
X88196200Y-36111900I0J87900D01*
G01*
X88196200Y-35311100D01*
G75*
G02*
X88284100Y-35223200I87900J0D01*
G01*
X88459900Y-35223200D01*
G75*
G02*
X88547800Y-35311100I0J-87900D01*
G01*
X88547800Y-36111900D01*
G75*
G02*
X88459900Y-36199800I-87900J0D01*
G01*
G37*
G36*
G01*
X87959900Y-36199800D02*
X87784100Y-36199800D01*
G75*
G02*
X87696200Y-36111900I0J87900D01*
G01*
X87696200Y-35311100D01*
G75*
G02*
X87784100Y-35223200I87900J0D01*
G01*
X87959900Y-35223200D01*
G75*
G02*
X88047800Y-35311100I0J-87900D01*
G01*
X88047800Y-36111900D01*
G75*
G02*
X87959900Y-36199800I-87900J0D01*
G01*
G37*
G36*
G01*
X87459900Y-36199800D02*
X87284100Y-36199800D01*
G75*
G02*
X87196200Y-36111900I0J87900D01*
G01*
X87196200Y-35311100D01*
G75*
G02*
X87284100Y-35223200I87900J0D01*
G01*
X87459900Y-35223200D01*
G75*
G02*
X87547800Y-35311100I0J-87900D01*
G01*
X87547800Y-36111900D01*
G75*
G02*
X87459900Y-36199800I-87900J0D01*
G01*
G37*
G36*
G01*
X86959900Y-36199800D02*
X86784100Y-36199800D01*
G75*
G02*
X86696200Y-36111900I0J87900D01*
G01*
X86696200Y-35311100D01*
G75*
G02*
X86784100Y-35223200I87900J0D01*
G01*
X86959900Y-35223200D01*
G75*
G02*
X87047800Y-35311100I0J-87900D01*
G01*
X87047800Y-36111900D01*
G75*
G02*
X86959900Y-36199800I-87900J0D01*
G01*
G37*
G36*
G01*
X86459900Y-36199800D02*
X86284100Y-36199800D01*
G75*
G02*
X86196200Y-36111900I0J87900D01*
G01*
X86196200Y-35311100D01*
G75*
G02*
X86284100Y-35223200I87900J0D01*
G01*
X86459900Y-35223200D01*
G75*
G02*
X86547800Y-35311100I0J-87900D01*
G01*
X86547800Y-36111900D01*
G75*
G02*
X86459900Y-36199800I-87900J0D01*
G01*
G37*
G36*
G01*
X85959900Y-36199800D02*
X85784100Y-36199800D01*
G75*
G02*
X85696200Y-36111900I0J87900D01*
G01*
X85696200Y-35311100D01*
G75*
G02*
X85784100Y-35223200I87900J0D01*
G01*
X85959900Y-35223200D01*
G75*
G02*
X86047800Y-35311100I0J-87900D01*
G01*
X86047800Y-36111900D01*
G75*
G02*
X85959900Y-36199800I-87900J0D01*
G01*
G37*
G36*
G01*
X85459900Y-36199800D02*
X85284100Y-36199800D01*
G75*
G02*
X85196200Y-36111900I0J87900D01*
G01*
X85196200Y-35311100D01*
G75*
G02*
X85284100Y-35223200I87900J0D01*
G01*
X85459900Y-35223200D01*
G75*
G02*
X85547800Y-35311100I0J-87900D01*
G01*
X85547800Y-36111900D01*
G75*
G02*
X85459900Y-36199800I-87900J0D01*
G01*
G37*
%TD*%
D14*
%TO.C,U2*%
X82423000Y-31496000D03*
X82423000Y-32796000D03*
X80523000Y-32146000D03*
X80523000Y-32796000D03*
X80523000Y-31496000D03*
%TD*%
D15*
%TO.C,U1*%
G36*
X69445089Y-31142324D02*
G01*
X69435560Y-31139433D01*
X69426777Y-31134739D01*
X69419079Y-31128421D01*
X69412761Y-31120723D01*
X69408067Y-31111940D01*
X69405176Y-31102411D01*
X69404200Y-31092500D01*
X69404200Y-29359500D01*
X69405176Y-29349589D01*
X69408067Y-29340060D01*
X69412761Y-29331277D01*
X69419079Y-29323579D01*
X69426777Y-29317261D01*
X69435560Y-29312567D01*
X69445089Y-29309676D01*
X69455000Y-29308700D01*
X72580000Y-29308700D01*
X72589911Y-29309676D01*
X72599440Y-29312567D01*
X72608223Y-29317261D01*
X72615921Y-29323579D01*
X72622239Y-29331277D01*
X72626933Y-29340060D01*
X72629824Y-29349589D01*
X72630800Y-29359500D01*
X72630800Y-29725200D01*
X74055000Y-29725200D01*
X74064911Y-29726176D01*
X74074440Y-29729067D01*
X74083223Y-29733761D01*
X74090921Y-29740079D01*
X74097239Y-29747777D01*
X74101933Y-29756560D01*
X74104824Y-29766089D01*
X74105800Y-29776000D01*
X74105800Y-30676000D01*
X74104824Y-30685911D01*
X74101933Y-30695440D01*
X74097239Y-30704223D01*
X74090921Y-30711921D01*
X74083223Y-30718239D01*
X74074440Y-30722933D01*
X74064911Y-30725824D01*
X74055000Y-30726800D01*
X72630800Y-30726800D01*
X72630800Y-31092500D01*
X72629824Y-31102411D01*
X72626933Y-31111940D01*
X72622239Y-31120723D01*
X72615921Y-31128421D01*
X72608223Y-31134739D01*
X72599440Y-31139433D01*
X72589911Y-31142324D01*
X72580000Y-31143300D01*
X69455000Y-31143300D01*
X69445089Y-31142324D01*
G37*
D16*
X73405000Y-28726000D03*
X73405000Y-31726000D03*
%TD*%
D17*
%TO.C,J2*%
X60754000Y-47626000D03*
X57754000Y-42926000D03*
D18*
X63754000Y-42926000D03*
%TD*%
D17*
%TO.C,J1*%
X60754000Y-34926000D03*
X57754000Y-30226000D03*
D18*
X63754000Y-30226000D03*
%TD*%
D11*
%TO.C,D1*%
X84394000Y-26194000D03*
X85344000Y-28194000D03*
X83444000Y-28194000D03*
%TD*%
M02*
