M48
; DRILL file {KiCad (5.1.6)-1} date 10/06/20 09:21:53
; FORMAT={-:-/ absolute / inch / decimal}
; #@! TF.CreationDate,2020-10-06T09:21:53-05:00
; #@! TF.GenerationSoftware,Kicad,Pcbnew,(5.1.6)-1
; #@! TF.FileFunction,Plated,1,2,PTH
FMAT,2
INCH
T1C0.0079
T2C0.0100
T3C0.0118
T4C0.0197
T5C0.0394
T6C0.1024
%
G90
G05
T1
X3.3906Y-1.2706
X3.3906Y-1.31
X3.3906Y-1.3494
X3.43Y-1.2706
X3.43Y-1.31
X3.43Y-1.3494
X3.4694Y-1.2706
X3.4694Y-1.31
X3.4694Y-1.3494
T2
X2.965Y-1.415
X3.555Y-1.46
T3
X2.96Y-1.13
X3.03Y-1.345
X3.065Y-1.13
X3.14Y-1.265
X3.155Y-1.095
X3.155Y-1.17
X3.1811Y-1.3789
X3.295Y-0.985
X3.295Y-1.24
X3.36Y-1.625
X3.385Y-1.555
X3.4068Y-1.455
X3.42Y-1.175
X3.475Y-1.455
X3.54Y-1.555
X3.56Y-1.405
X3.57Y-1.3417
X3.57Y-1.3713
X3.5775Y-1.2725
X3.75Y-1.44
X3.825Y-1.28
X3.8725Y-1.2725
X3.945Y-1.41
T4
X2.89Y-1.31
T5
X3.9153Y-1.816
X3.9153Y-1.9144
X3.9153Y-2.0128
X3.9153Y-2.1113
T6
X2.2738Y-1.19
X2.3919Y-1.375
X2.51Y-1.19
X2.2738Y-1.69
X2.3919Y-1.875
X2.51Y-1.69
T0
M30
