M48
; DRILL file {KiCad (5.1.6)-1} date 10/06/20 11:55:30
; FORMAT={-:-/ absolute / inch / decimal}
; #@! TF.CreationDate,2020-10-06T11:55:30-05:00
; #@! TF.GenerationSoftware,Kicad,Pcbnew,(5.1.6)-1
; #@! TF.FileFunction,Plated,1,2,PTH
FMAT,2
INCH
T1C0.0100
T2C0.0197
T3C0.0394
T4C0.1024
%
G90
G05
T1
X2.77Y-1.27
X2.845Y-1.42
X3.09Y-1.555
X3.18Y-1.555
X3.18Y-1.61
X3.27Y-1.555
X3.385Y-1.61
X3.398Y-1.007
X3.945Y-1.005
T2
X2.655Y-1.655
T3
X3.925Y-1.8366
X3.925Y-1.935
X3.925Y-2.0334
X3.925Y-2.1319
T4
X2.2738Y-1.69
X2.3919Y-1.875
X2.51Y-1.69
X2.2738Y-1.19
X2.3919Y-1.375
X2.51Y-1.19
T0
M30
