%TF.GenerationSoftware,KiCad,Pcbnew,(5.1.6)-1*%
%TF.CreationDate,2020-10-06T11:55:27-05:00*%
%TF.ProjectId,desk_lamp,6465736b-5f6c-4616-9d70-2e6b69636164,rev?*%
%TF.SameCoordinates,Original*%
%TF.FileFunction,Copper,L1,Top*%
%TF.FilePolarity,Positive*%
%FSLAX46Y46*%
G04 Gerber Fmt 4.6, Leading zero omitted, Abs format (unit mm)*
G04 Created by KiCad (PCBNEW (5.1.6)-1) date 2020-10-06 11:55:27*
%MOMM*%
%LPD*%
G01*
G04 APERTURE LIST*
%TA.AperFunction,ComponentPad*%
%ADD10C,3.600000*%
%TD*%
%TA.AperFunction,ComponentPad*%
%ADD11R,3.600000X3.600000*%
%TD*%
%TA.AperFunction,ComponentPad*%
%ADD12O,3.600000X1.700000*%
%TD*%
%TA.AperFunction,SMDPad,CuDef*%
%ADD13R,0.800000X0.900000*%
%TD*%
%TA.AperFunction,SMDPad,CuDef*%
%ADD14R,3.800000X2.030000*%
%TD*%
%TA.AperFunction,SMDPad,CuDef*%
%ADD15C,0.100000*%
%TD*%
%TA.AperFunction,SMDPad,CuDef*%
%ADD16R,1.300000X0.900000*%
%TD*%
%TA.AperFunction,SMDPad,CuDef*%
%ADD17R,10.800000X9.400000*%
%TD*%
%TA.AperFunction,SMDPad,CuDef*%
%ADD18R,1.100000X4.600000*%
%TD*%
%TA.AperFunction,ViaPad*%
%ADD19C,0.508000*%
%TD*%
%TA.AperFunction,ViaPad*%
%ADD20C,1.000000*%
%TD*%
%TA.AperFunction,Conductor*%
%ADD21C,1.000000*%
%TD*%
%TA.AperFunction,Conductor*%
%ADD22C,0.203200*%
%TD*%
%TA.AperFunction,Conductor*%
%ADD23C,0.500000*%
%TD*%
%TA.AperFunction,Conductor*%
%ADD24C,0.250000*%
%TD*%
G04 APERTURE END LIST*
%TO.P,U2,16*%
%TO.N,+3V3*%
%TA.AperFunction,SMDPad,CuDef*%
G36*
G01*
X100863400Y-23418800D02*
X100863400Y-22656800D01*
G75*
G02*
X101244400Y-22275800I381000J0D01*
G01*
X103006400Y-22275800D01*
G75*
G02*
X103387400Y-22656800I0J-381000D01*
G01*
X103387400Y-23418800D01*
G75*
G02*
X103006400Y-23799800I-381000J0D01*
G01*
X101244400Y-23799800D01*
G75*
G02*
X100863400Y-23418800I0J381000D01*
G01*
G37*
%TD.AperFunction*%
%TO.P,U2,15*%
%TO.N,GND*%
%TA.AperFunction,SMDPad,CuDef*%
G36*
G01*
X100863400Y-25958800D02*
X100863400Y-25196800D01*
G75*
G02*
X101244400Y-24815800I381000J0D01*
G01*
X103006400Y-24815800D01*
G75*
G02*
X103387400Y-25196800I0J-381000D01*
G01*
X103387400Y-25958800D01*
G75*
G02*
X103006400Y-26339800I-381000J0D01*
G01*
X101244400Y-26339800D01*
G75*
G02*
X100863400Y-25958800I0J381000D01*
G01*
G37*
%TD.AperFunction*%
%TO.P,U2,14*%
%TO.N,N/C*%
%TA.AperFunction,SMDPad,CuDef*%
G36*
G01*
X100863400Y-28498800D02*
X100863400Y-27736800D01*
G75*
G02*
X101244400Y-27355800I381000J0D01*
G01*
X103006400Y-27355800D01*
G75*
G02*
X103387400Y-27736800I0J-381000D01*
G01*
X103387400Y-28498800D01*
G75*
G02*
X103006400Y-28879800I-381000J0D01*
G01*
X101244400Y-28879800D01*
G75*
G02*
X100863400Y-28498800I0J381000D01*
G01*
G37*
%TD.AperFunction*%
%TO.P,U2,13*%
%TA.AperFunction,SMDPad,CuDef*%
G36*
G01*
X100863400Y-31038800D02*
X100863400Y-30276800D01*
G75*
G02*
X101244400Y-29895800I381000J0D01*
G01*
X103006400Y-29895800D01*
G75*
G02*
X103387400Y-30276800I0J-381000D01*
G01*
X103387400Y-31038800D01*
G75*
G02*
X103006400Y-31419800I-381000J0D01*
G01*
X101244400Y-31419800D01*
G75*
G02*
X100863400Y-31038800I0J381000D01*
G01*
G37*
%TD.AperFunction*%
%TO.P,U2,12*%
%TA.AperFunction,SMDPad,CuDef*%
G36*
G01*
X100863400Y-33578800D02*
X100863400Y-32816800D01*
G75*
G02*
X101244400Y-32435800I381000J0D01*
G01*
X103006400Y-32435800D01*
G75*
G02*
X103387400Y-32816800I0J-381000D01*
G01*
X103387400Y-33578800D01*
G75*
G02*
X103006400Y-33959800I-381000J0D01*
G01*
X101244400Y-33959800D01*
G75*
G02*
X100863400Y-33578800I0J381000D01*
G01*
G37*
%TD.AperFunction*%
%TO.P,U2,11*%
%TA.AperFunction,SMDPad,CuDef*%
G36*
G01*
X100863400Y-36118800D02*
X100863400Y-35356800D01*
G75*
G02*
X101244400Y-34975800I381000J0D01*
G01*
X103006400Y-34975800D01*
G75*
G02*
X103387400Y-35356800I0J-381000D01*
G01*
X103387400Y-36118800D01*
G75*
G02*
X103006400Y-36499800I-381000J0D01*
G01*
X101244400Y-36499800D01*
G75*
G02*
X100863400Y-36118800I0J381000D01*
G01*
G37*
%TD.AperFunction*%
%TO.P,U2,10*%
%TA.AperFunction,SMDPad,CuDef*%
G36*
G01*
X100863400Y-38658800D02*
X100863400Y-37896800D01*
G75*
G02*
X101244400Y-37515800I381000J0D01*
G01*
X103006400Y-37515800D01*
G75*
G02*
X103387400Y-37896800I0J-381000D01*
G01*
X103387400Y-38658800D01*
G75*
G02*
X103006400Y-39039800I-381000J0D01*
G01*
X101244400Y-39039800D01*
G75*
G02*
X100863400Y-38658800I0J381000D01*
G01*
G37*
%TD.AperFunction*%
%TO.P,U2,8*%
%TO.N,Lamp_Control*%
%TA.AperFunction,SMDPad,CuDef*%
G36*
G01*
X87163400Y-41198800D02*
X87163400Y-40436800D01*
G75*
G02*
X87544400Y-40055800I381000J0D01*
G01*
X89306400Y-40055800D01*
G75*
G02*
X89687400Y-40436800I0J-381000D01*
G01*
X89687400Y-41198800D01*
G75*
G02*
X89306400Y-41579800I-381000J0D01*
G01*
X87544400Y-41579800D01*
G75*
G02*
X87163400Y-41198800I0J381000D01*
G01*
G37*
%TD.AperFunction*%
%TO.P,U2,7*%
%TO.N,N/C*%
%TA.AperFunction,SMDPad,CuDef*%
G36*
G01*
X87163400Y-38658800D02*
X87163400Y-37896800D01*
G75*
G02*
X87544400Y-37515800I381000J0D01*
G01*
X89306400Y-37515800D01*
G75*
G02*
X89687400Y-37896800I0J-381000D01*
G01*
X89687400Y-38658800D01*
G75*
G02*
X89306400Y-39039800I-381000J0D01*
G01*
X87544400Y-39039800D01*
G75*
G02*
X87163400Y-38658800I0J381000D01*
G01*
G37*
%TD.AperFunction*%
%TO.P,U2,6*%
%TA.AperFunction,SMDPad,CuDef*%
G36*
G01*
X87163400Y-36118800D02*
X87163400Y-35356800D01*
G75*
G02*
X87544400Y-34975800I381000J0D01*
G01*
X89306400Y-34975800D01*
G75*
G02*
X89687400Y-35356800I0J-381000D01*
G01*
X89687400Y-36118800D01*
G75*
G02*
X89306400Y-36499800I-381000J0D01*
G01*
X87544400Y-36499800D01*
G75*
G02*
X87163400Y-36118800I0J381000D01*
G01*
G37*
%TD.AperFunction*%
%TO.P,U2,5*%
%TA.AperFunction,SMDPad,CuDef*%
G36*
G01*
X87163400Y-33578800D02*
X87163400Y-32816800D01*
G75*
G02*
X87544400Y-32435800I381000J0D01*
G01*
X89306400Y-32435800D01*
G75*
G02*
X89687400Y-32816800I0J-381000D01*
G01*
X89687400Y-33578800D01*
G75*
G02*
X89306400Y-33959800I-381000J0D01*
G01*
X87544400Y-33959800D01*
G75*
G02*
X87163400Y-33578800I0J381000D01*
G01*
G37*
%TD.AperFunction*%
%TO.P,U2,4*%
%TO.N,I_SW1*%
%TA.AperFunction,SMDPad,CuDef*%
G36*
G01*
X87163400Y-31038800D02*
X87163400Y-30276800D01*
G75*
G02*
X87544400Y-29895800I381000J0D01*
G01*
X89306400Y-29895800D01*
G75*
G02*
X89687400Y-30276800I0J-381000D01*
G01*
X89687400Y-31038800D01*
G75*
G02*
X89306400Y-31419800I-381000J0D01*
G01*
X87544400Y-31419800D01*
G75*
G02*
X87163400Y-31038800I0J381000D01*
G01*
G37*
%TD.AperFunction*%
%TO.P,U2,3*%
%TO.N,I_SW0*%
%TA.AperFunction,SMDPad,CuDef*%
G36*
G01*
X87163400Y-28498800D02*
X87163400Y-27736800D01*
G75*
G02*
X87544400Y-27355800I381000J0D01*
G01*
X89306400Y-27355800D01*
G75*
G02*
X89687400Y-27736800I0J-381000D01*
G01*
X89687400Y-28498800D01*
G75*
G02*
X89306400Y-28879800I-381000J0D01*
G01*
X87544400Y-28879800D01*
G75*
G02*
X87163400Y-28498800I0J381000D01*
G01*
G37*
%TD.AperFunction*%
%TO.P,U2,2*%
%TO.N,GND*%
%TA.AperFunction,SMDPad,CuDef*%
G36*
G01*
X87163400Y-25958800D02*
X87163400Y-25196800D01*
G75*
G02*
X87544400Y-24815800I381000J0D01*
G01*
X89306400Y-24815800D01*
G75*
G02*
X89687400Y-25196800I0J-381000D01*
G01*
X89687400Y-25958800D01*
G75*
G02*
X89306400Y-26339800I-381000J0D01*
G01*
X87544400Y-26339800D01*
G75*
G02*
X87163400Y-25958800I0J381000D01*
G01*
G37*
%TD.AperFunction*%
%TO.P,U2,9*%
%TO.N,N/C*%
%TA.AperFunction,SMDPad,CuDef*%
G36*
G01*
X100863400Y-41198800D02*
X100863400Y-40436800D01*
G75*
G02*
X101244400Y-40055800I381000J0D01*
G01*
X103006400Y-40055800D01*
G75*
G02*
X103387400Y-40436800I0J-381000D01*
G01*
X103387400Y-41198800D01*
G75*
G02*
X103006400Y-41579800I-381000J0D01*
G01*
X101244400Y-41579800D01*
G75*
G02*
X100863400Y-41198800I0J381000D01*
G01*
G37*
%TD.AperFunction*%
%TO.P,U2,1*%
%TO.N,+3V3*%
%TA.AperFunction,SMDPad,CuDef*%
G36*
G01*
X87163400Y-23418800D02*
X87163400Y-22656800D01*
G75*
G02*
X87544400Y-22275800I381000J0D01*
G01*
X89306400Y-22275800D01*
G75*
G02*
X89687400Y-22656800I0J-381000D01*
G01*
X89687400Y-23418800D01*
G75*
G02*
X89306400Y-23799800I-381000J0D01*
G01*
X87544400Y-23799800D01*
G75*
G02*
X87163400Y-23418800I0J381000D01*
G01*
G37*
%TD.AperFunction*%
%TD*%
D10*
%TO.P,J2,3*%
%TO.N,Net-(J2-Pad2)*%
X60754000Y-47626000D03*
%TO.P,J2,2*%
X57754000Y-42926000D03*
D11*
%TO.P,J2,1*%
%TO.N,+12V*%
X63754000Y-42926000D03*
%TD*%
D10*
%TO.P,J1,3*%
%TO.N,GND*%
X60754000Y-34926000D03*
%TO.P,J1,2*%
X57754000Y-30226000D03*
D11*
%TO.P,J1,1*%
%TO.N,+12V*%
X63754000Y-30226000D03*
%TD*%
D12*
%TO.P,J3,4*%
%TO.N,GND*%
X99695000Y-46649000D03*
%TO.P,J3,3*%
%TO.N,I_SW1*%
X99695000Y-49149000D03*
%TO.P,J3,2*%
%TO.N,GND*%
X99695000Y-51649000D03*
%TO.P,J3,1*%
%TO.N,I_SW0*%
%TA.AperFunction,ComponentPad*%
G36*
G01*
X101070000Y-54999000D02*
X98320000Y-54999000D01*
G75*
G02*
X97895000Y-54574000I0J425000D01*
G01*
X97895000Y-53724000D01*
G75*
G02*
X98320000Y-53299000I425000J0D01*
G01*
X101070000Y-53299000D01*
G75*
G02*
X101495000Y-53724000I0J-425000D01*
G01*
X101495000Y-54574000D01*
G75*
G02*
X101070000Y-54999000I-425000J0D01*
G01*
G37*
%TD.AperFunction*%
%TD*%
D13*
%TO.P,Q1,3*%
%TO.N,Net-(Q1-Pad3)*%
X74295000Y-38084000D03*
%TO.P,Q1,2*%
%TO.N,GND*%
X73345000Y-36084000D03*
%TO.P,Q1,1*%
%TO.N,Lamp_Control*%
X75245000Y-36084000D03*
%TD*%
D14*
%TO.P,TP6,1*%
%TO.N,+3V3*%
X70637400Y-23393400D03*
%TD*%
%TO.P,TP5,1*%
%TO.N,Lamp_Control*%
X81559400Y-53873400D03*
%TD*%
%TO.P,TP4,1*%
%TO.N,I_SW1*%
X88011000Y-49022000D03*
%TD*%
%TO.P,TP3,1*%
%TO.N,I_SW0*%
X88036400Y-53873400D03*
%TD*%
%TO.P,TP2,1*%
%TO.N,GND*%
X58928000Y-23368000D03*
%TD*%
%TO.P,TP1,1*%
%TO.N,+12V*%
X65024000Y-23368000D03*
%TD*%
%TA.AperFunction,SMDPad,CuDef*%
D15*
%TO.P,U1,2*%
%TO.N,+12V*%
G36*
X69455000Y-29359500D02*
G01*
X72580000Y-29359500D01*
X72580000Y-29776000D01*
X74055000Y-29776000D01*
X74055000Y-30676000D01*
X72580000Y-30676000D01*
X72580000Y-31092500D01*
X69455000Y-31092500D01*
X69455000Y-29359500D01*
G37*
%TD.AperFunction*%
D16*
%TO.P,U1,3*%
%TO.N,+3V3*%
X73405000Y-28726000D03*
%TO.P,U1,1*%
%TO.N,GND*%
X73405000Y-31726000D03*
%TD*%
%TO.P,R4,2*%
%TO.N,I_SW0*%
%TA.AperFunction,SMDPad,CuDef*%
G36*
G01*
X81228250Y-36682500D02*
X80315750Y-36682500D01*
G75*
G02*
X80072000Y-36438750I0J243750D01*
G01*
X80072000Y-35951250D01*
G75*
G02*
X80315750Y-35707500I243750J0D01*
G01*
X81228250Y-35707500D01*
G75*
G02*
X81472000Y-35951250I0J-243750D01*
G01*
X81472000Y-36438750D01*
G75*
G02*
X81228250Y-36682500I-243750J0D01*
G01*
G37*
%TD.AperFunction*%
%TO.P,R4,1*%
%TO.N,+3V3*%
%TA.AperFunction,SMDPad,CuDef*%
G36*
G01*
X81228250Y-38557500D02*
X80315750Y-38557500D01*
G75*
G02*
X80072000Y-38313750I0J243750D01*
G01*
X80072000Y-37826250D01*
G75*
G02*
X80315750Y-37582500I243750J0D01*
G01*
X81228250Y-37582500D01*
G75*
G02*
X81472000Y-37826250I0J-243750D01*
G01*
X81472000Y-38313750D01*
G75*
G02*
X81228250Y-38557500I-243750J0D01*
G01*
G37*
%TD.AperFunction*%
%TD*%
%TO.P,R3,2*%
%TO.N,I_SW1*%
%TA.AperFunction,SMDPad,CuDef*%
G36*
G01*
X83514250Y-36682500D02*
X82601750Y-36682500D01*
G75*
G02*
X82358000Y-36438750I0J243750D01*
G01*
X82358000Y-35951250D01*
G75*
G02*
X82601750Y-35707500I243750J0D01*
G01*
X83514250Y-35707500D01*
G75*
G02*
X83758000Y-35951250I0J-243750D01*
G01*
X83758000Y-36438750D01*
G75*
G02*
X83514250Y-36682500I-243750J0D01*
G01*
G37*
%TD.AperFunction*%
%TO.P,R3,1*%
%TO.N,+3V3*%
%TA.AperFunction,SMDPad,CuDef*%
G36*
G01*
X83514250Y-38557500D02*
X82601750Y-38557500D01*
G75*
G02*
X82358000Y-38313750I0J243750D01*
G01*
X82358000Y-37826250D01*
G75*
G02*
X82601750Y-37582500I243750J0D01*
G01*
X83514250Y-37582500D01*
G75*
G02*
X83758000Y-37826250I0J-243750D01*
G01*
X83758000Y-38313750D01*
G75*
G02*
X83514250Y-38557500I-243750J0D01*
G01*
G37*
%TD.AperFunction*%
%TD*%
%TO.P,R2,2*%
%TO.N,Net-(Q1-Pad3)*%
%TA.AperFunction,SMDPad,CuDef*%
G36*
G01*
X69774750Y-37582500D02*
X70687250Y-37582500D01*
G75*
G02*
X70931000Y-37826250I0J-243750D01*
G01*
X70931000Y-38313750D01*
G75*
G02*
X70687250Y-38557500I-243750J0D01*
G01*
X69774750Y-38557500D01*
G75*
G02*
X69531000Y-38313750I0J243750D01*
G01*
X69531000Y-37826250D01*
G75*
G02*
X69774750Y-37582500I243750J0D01*
G01*
G37*
%TD.AperFunction*%
%TO.P,R2,1*%
%TO.N,+12V*%
%TA.AperFunction,SMDPad,CuDef*%
G36*
G01*
X69774750Y-35707500D02*
X70687250Y-35707500D01*
G75*
G02*
X70931000Y-35951250I0J-243750D01*
G01*
X70931000Y-36438750D01*
G75*
G02*
X70687250Y-36682500I-243750J0D01*
G01*
X69774750Y-36682500D01*
G75*
G02*
X69531000Y-36438750I0J243750D01*
G01*
X69531000Y-35951250D01*
G75*
G02*
X69774750Y-35707500I243750J0D01*
G01*
G37*
%TD.AperFunction*%
%TD*%
%TO.P,R1,2*%
%TO.N,GND*%
%TA.AperFunction,SMDPad,CuDef*%
G36*
G01*
X78029750Y-37534000D02*
X78942250Y-37534000D01*
G75*
G02*
X79186000Y-37777750I0J-243750D01*
G01*
X79186000Y-38265250D01*
G75*
G02*
X78942250Y-38509000I-243750J0D01*
G01*
X78029750Y-38509000D01*
G75*
G02*
X77786000Y-38265250I0J243750D01*
G01*
X77786000Y-37777750D01*
G75*
G02*
X78029750Y-37534000I243750J0D01*
G01*
G37*
%TD.AperFunction*%
%TO.P,R1,1*%
%TO.N,Lamp_Control*%
%TA.AperFunction,SMDPad,CuDef*%
G36*
G01*
X78029750Y-35659000D02*
X78942250Y-35659000D01*
G75*
G02*
X79186000Y-35902750I0J-243750D01*
G01*
X79186000Y-36390250D01*
G75*
G02*
X78942250Y-36634000I-243750J0D01*
G01*
X78029750Y-36634000D01*
G75*
G02*
X77786000Y-36390250I0J243750D01*
G01*
X77786000Y-35902750D01*
G75*
G02*
X78029750Y-35659000I243750J0D01*
G01*
G37*
%TD.AperFunction*%
%TD*%
D17*
%TO.P,Q2,2*%
%TO.N,Net-(J2-Pad2)*%
X71755000Y-51254000D03*
D18*
%TO.P,Q2,3*%
%TO.N,GND*%
X69215000Y-42104000D03*
%TO.P,Q2,2*%
%TO.N,Net-(J2-Pad2)*%
X71755000Y-42104000D03*
%TO.P,Q2,1*%
%TO.N,Net-(Q1-Pad3)*%
X74295000Y-42104000D03*
%TD*%
%TO.P,C2,2*%
%TO.N,GND*%
%TA.AperFunction,SMDPad,CuDef*%
G36*
G01*
X84252750Y-24882500D02*
X85165250Y-24882500D01*
G75*
G02*
X85409000Y-25126250I0J-243750D01*
G01*
X85409000Y-25613750D01*
G75*
G02*
X85165250Y-25857500I-243750J0D01*
G01*
X84252750Y-25857500D01*
G75*
G02*
X84009000Y-25613750I0J243750D01*
G01*
X84009000Y-25126250D01*
G75*
G02*
X84252750Y-24882500I243750J0D01*
G01*
G37*
%TD.AperFunction*%
%TO.P,C2,1*%
%TO.N,+3V3*%
%TA.AperFunction,SMDPad,CuDef*%
G36*
G01*
X84252750Y-23007500D02*
X85165250Y-23007500D01*
G75*
G02*
X85409000Y-23251250I0J-243750D01*
G01*
X85409000Y-23738750D01*
G75*
G02*
X85165250Y-23982500I-243750J0D01*
G01*
X84252750Y-23982500D01*
G75*
G02*
X84009000Y-23738750I0J243750D01*
G01*
X84009000Y-23251250D01*
G75*
G02*
X84252750Y-23007500I243750J0D01*
G01*
G37*
%TD.AperFunction*%
%TD*%
%TO.P,C1,2*%
%TO.N,GND*%
%TA.AperFunction,SMDPad,CuDef*%
G36*
G01*
X66980750Y-31740500D02*
X67893250Y-31740500D01*
G75*
G02*
X68137000Y-31984250I0J-243750D01*
G01*
X68137000Y-32471750D01*
G75*
G02*
X67893250Y-32715500I-243750J0D01*
G01*
X66980750Y-32715500D01*
G75*
G02*
X66737000Y-32471750I0J243750D01*
G01*
X66737000Y-31984250D01*
G75*
G02*
X66980750Y-31740500I243750J0D01*
G01*
G37*
%TD.AperFunction*%
%TO.P,C1,1*%
%TO.N,+12V*%
%TA.AperFunction,SMDPad,CuDef*%
G36*
G01*
X66980750Y-29865500D02*
X67893250Y-29865500D01*
G75*
G02*
X68137000Y-30109250I0J-243750D01*
G01*
X68137000Y-30596750D01*
G75*
G02*
X67893250Y-30840500I-243750J0D01*
G01*
X66980750Y-30840500D01*
G75*
G02*
X66737000Y-30596750I0J243750D01*
G01*
X66737000Y-30109250D01*
G75*
G02*
X66980750Y-29865500I243750J0D01*
G01*
G37*
%TD.AperFunction*%
%TD*%
D19*
%TO.N,GND*%
X100203000Y-25527000D03*
X86309200Y-25577800D03*
D20*
X67437000Y-42037000D03*
D19*
X70358000Y-32258000D03*
X78486000Y-39497000D03*
X72263000Y-36068000D03*
%TO.N,+3V3*%
X80772000Y-39497000D03*
X83058000Y-39497000D03*
%TO.N,Lamp_Control*%
X85979000Y-40894000D03*
X80772000Y-40894000D03*
%TD*%
D21*
%TO.N,GND*%
X58928000Y-29052000D02*
X57754000Y-30226000D01*
X58928000Y-23368000D02*
X58928000Y-29052000D01*
D22*
X84916800Y-25577800D02*
X84709000Y-25370000D01*
X88425400Y-25577800D02*
X86309200Y-25577800D01*
X102125400Y-25577800D02*
X100253800Y-25577800D01*
X100253800Y-25577800D02*
X100203000Y-25527000D01*
X86309200Y-25577800D02*
X84916800Y-25577800D01*
D21*
X69215000Y-42104000D02*
X67504000Y-42104000D01*
X67504000Y-42104000D02*
X67437000Y-42037000D01*
D22*
X67437000Y-32228000D02*
X70328000Y-32228000D01*
X70328000Y-32228000D02*
X70358000Y-32258000D01*
X73405000Y-31726000D02*
X72541000Y-31726000D01*
X72009000Y-32258000D02*
X70358000Y-32258000D01*
X72541000Y-31726000D02*
X72009000Y-32258000D01*
X78486000Y-38021500D02*
X78486000Y-39497000D01*
X73345000Y-36084000D02*
X72279000Y-36084000D01*
X72279000Y-36084000D02*
X72263000Y-36068000D01*
D21*
%TO.N,+12V*%
X65024000Y-28956000D02*
X63754000Y-30226000D01*
X65024000Y-23368000D02*
X65024000Y-28956000D01*
D23*
X73317500Y-30226000D02*
X73444500Y-30353000D01*
X73317500Y-30099000D02*
X73444500Y-30226000D01*
X73317500Y-30226000D02*
X63754000Y-30226000D01*
D22*
X70231000Y-36195000D02*
X63754000Y-36195000D01*
D21*
X63754000Y-30226000D02*
X63754000Y-36195000D01*
X63754000Y-36195000D02*
X63754000Y-42926000D01*
D24*
%TO.N,+3V3*%
X70637400Y-25958400D02*
X73405000Y-28726000D01*
X70637400Y-23393400D02*
X70637400Y-25958400D01*
D22*
X102125400Y-23037800D02*
X88425400Y-23037800D01*
X78636000Y-23495000D02*
X73405000Y-28726000D01*
X84709000Y-23495000D02*
X78636000Y-23495000D01*
X84836000Y-23368000D02*
X84709000Y-23495000D01*
X88425400Y-23037800D02*
X88095200Y-23368000D01*
X88095200Y-23368000D02*
X84836000Y-23368000D01*
X79629000Y-36927000D02*
X80772000Y-38070000D01*
X84709000Y-23495000D02*
X79629000Y-28575000D01*
X79629000Y-28575000D02*
X79629000Y-36927000D01*
X80772000Y-38070000D02*
X80772000Y-39497000D01*
X83058000Y-38070000D02*
X83058000Y-39497000D01*
D21*
%TO.N,Net-(J2-Pad2)*%
X60861000Y-47733000D02*
X60754000Y-47626000D01*
X57754000Y-44626000D02*
X60754000Y-47626000D01*
X57754000Y-42926000D02*
X57754000Y-44626000D01*
D22*
X71755000Y-42104000D02*
X71755000Y-51254000D01*
D21*
X68127000Y-47626000D02*
X71755000Y-51254000D01*
X60754000Y-47626000D02*
X68127000Y-47626000D01*
D22*
%TO.N,Net-(Q1-Pad3)*%
X74295000Y-38084000D02*
X74295000Y-42104000D01*
X70245000Y-38084000D02*
X70231000Y-38070000D01*
X74295000Y-38084000D02*
X70245000Y-38084000D01*
%TO.N,Lamp_Control*%
X75307500Y-36146500D02*
X75245000Y-36084000D01*
X78486000Y-36146500D02*
X77421500Y-36146500D01*
X77421500Y-36146500D02*
X75307500Y-36146500D01*
X77409001Y-36158999D02*
X77421500Y-36146500D01*
X81559400Y-53873400D02*
X81559400Y-48539400D01*
X81559400Y-48539400D02*
X77409001Y-44389001D01*
X88425400Y-40817800D02*
X86055200Y-40817800D01*
X86055200Y-40817800D02*
X85979000Y-40894000D01*
X77470000Y-40894000D02*
X77409001Y-40833001D01*
X80772000Y-40894000D02*
X77470000Y-40894000D01*
X77409001Y-44389001D02*
X77409001Y-40833001D01*
X77409001Y-40833001D02*
X77409001Y-36158999D01*
D24*
%TO.N,I_SW1*%
X87899000Y-48372000D02*
X87757000Y-48514000D01*
X99321000Y-48372000D02*
X87899000Y-48372000D01*
D22*
X83058000Y-36195000D02*
X83058000Y-32893000D01*
X85293200Y-30657800D02*
X88425400Y-30657800D01*
X83058000Y-32893000D02*
X85293200Y-30657800D01*
X84074000Y-37211000D02*
X83058000Y-36195000D01*
X88011000Y-49022000D02*
X84074000Y-45085000D01*
X84074000Y-45085000D02*
X84074000Y-37211000D01*
D24*
%TO.N,I_SW0*%
X87789000Y-53372000D02*
X87782400Y-53365400D01*
X99321000Y-53372000D02*
X87789000Y-53372000D01*
D22*
X88425400Y-28117800D02*
X84023200Y-28117800D01*
X80772000Y-31369000D02*
X80772000Y-36195000D01*
X84023200Y-28117800D02*
X80772000Y-31369000D01*
X88036400Y-53873400D02*
X81915000Y-47752000D01*
X81915000Y-37338000D02*
X80772000Y-36195000D01*
X81915000Y-47752000D02*
X81915000Y-37338000D01*
%TD*%
M02*
